<svg id="Layer_1" data-name="Layer 1" xmlns="http://www.w3.org/2000/svg" width="1152" height="648" viewBox="0 0 1152 648">
  <title>p</title>
   <g id="Shapes">
  <path d="M94,750V102H1246V750ZM952.75,557.609l1.139.224a15.706,15.706,0,0,1,.639,2.609c.614,8.334.917,16.7,1.815,25,1.674,15.464,3.354,30.941,5.692,46.313,1.226,8.06,3.03,16.228,7.615,23.254,7.476,11.455,24.4,16.2,37.3,10.929,7.411-3.029,13.706-7.517,14.435-15.779a271.836,271.836,0,0,0,.592-33.315c-.366-10.458-1.864-20.873-2.648-31.323-.117-1.569.948-3.227,1.465-4.844a22.6,22.6,0,0,1,4.183,2.269c10.438,8.878,21.136,17.286,33.114,24.157a151.381,151.381,0,0,0,40.024,15.886,107.552,107.552,0,0,0,58.279-2.369c3.616-1.14,7.122-2.64,10.654-4.04a100.763,100.763,0,0,0,41.334-29.887,121.081,121.081,0,0,0,21.534-38.48c3.579-10.607,6.02-21.453,5-32.609-.985-10.722-2.483-21.47-6.955-31.492-3.348-7.5-6.626-15-12.357-21.153-4.812-5.165-5.633-3.947-7.827,1.9-3.271,8.717-8.122,16.542-15.835,21.993a69.554,69.554,0,0,1-41.589,12.933c-6.689-.054-13.4-.131-20.059-.687-11.457-.956-22.546-3.573-32.78-9.026-14.539-7.748-27.382-17.4-35.635-32.15-2-3.576-1.932-4.556,1.58-6.91,15.494-10.386,25.564-24.84,32.66-41.888,5-12.008,6.281-24.319,6.018-37.092-.281-13.6-4.074-26.281-9.34-38.6-2.114-4.945-1.766-6.458,3.483-8.118a189.287,189.287,0,0,0,46.818-22.653,240.838,240.838,0,0,0,38.172-31.562c9.359-9.365,17.17-19.716,24.7-30.421,1.54-2.19,1.826-4.49-.665-6.258-2.119-1.5-4.208-3.411-6.608-4.092-8.784-2.491-17.6-5.088-26.58-6.6-8.284-1.4-16.873-2.487-25.186-1.857-10.822.821-21.617,2.994-32.221,5.456-14.2,3.3-27.712,8.585-39.9,16.807-5.035,3.395-9.978,6.928-15.05,10.266-3.065,2.017-7.377,1.178-10.071-1.84-2.63-2.945.209-4.818,1.616-6.8,7.515-10.571,15.188-21.03,22.677-31.62,9.027-12.762,14.614-27.252,20.4-41.61,1.084-2.69,1.256-5.805,1.515-8.753.237-2.692-1.229-4.381-4.029-4.39-6.8-.021-13.708-.718-20.362.275a139.3,139.3,0,0,0-48.243,16.611c-14.1,7.945-26.127,18.385-37.66,29.356a109.717,109.717,0,0,0-23.875,33.294c-2.145,4.612-5.064,6.1-9.814,5.645-4.235-.4-5.982-1.637-6.239-5.731-1.148-18.319-2.175-36.646-3.329-54.964-.391-6.195-1.332-12.261-4.085-17.988-3.782-7.865-10.538-11.625-19.189-10.684-9.658,1.05-15.6,7.472-20.834,14.5-8.908,11.975-9.67,25.935-8.268,40.1,1.279,12.921,6.6,24.548,12.512,35.92,2.336,4.5,2.128,4.766-2.5,6.736-10.245,4.364-20.077,9.591-28.429,16.981a230.47,230.47,0,0,0-17.488,17.842C846.072,296.06,842.1,307,839.09,318.164c-1.779,6.609-2.063,13.608-3.23,20.4-2.041,11.87.212,23.382,3.865,34.44,3.815,11.547,9.2,22.568,17.233,31.951,5.822,6.8,11.316,14.058,18.026,19.881,12.875,11.174,26.647,21.26,42.107,28.79a4.741,4.741,0,0,1,2.3,3.417c.109,8.074-.03,16.154-.2,24.229-.1,4.538-2.577,6.653-7.082,7.308a17.941,17.941,0,0,0-7.114,3.08c-6.787,4.6-10.918,11.277-13.51,18.887-4.21,12.361-3.782,24.907-.881,37.451,2.247,9.722,6.131,18.489,14.419,24.787,12,9.114,33.067,10.466,42.285-6.21C949,563.514,950.93,560.592,952.75,557.609ZM585.563,504.587a13.182,13.182,0,0,1-.3,2.966q-2.268,6.385-4.719,12.705c-5.3,13.6-10.554,27.224-16,40.768-4.131,10.272-8.26,20.54-10.168,31.5a83.44,83.44,0,0,0-1.159,12.577c-.143,7.064,4.913,10.992,9.82,14.722,7.5,5.7,16.17,5.979,24.921,4.175,11.759-2.424,20.289-9.027,24.407-20.581,2.311-6.482,4.688-12.974,6.427-19.62,2.914-11.134,5.069-22.47,8.075-33.577A168.687,168.687,0,0,1,634.1,530.2c.437-1.061,2.977-1.782,4.475-1.677.861.06,1.921,2,2.286,3.269a24.065,24.065,0,0,1,.659,5.647c.613,15.043,1.1,30.093,1.8,45.132.458,9.849.908,19.645,3.852,29.268,3.8,12.421,10.694,21.125,24.1,23.209,6.991,1.087,14.248,1.221,19.2-4.735,8.369-10.065,14.175-21.483,13.618-35.028-.509-12.383-1.094-24.8-2.517-37.1-2.084-18.021-4.943-35.953-7.476-53.921-.461-3.273,1.819-5.381,4.652-3.8,6.639,3.718,13.781,3.169,20.936,3.456,11.633.466,21.745-3.206,30.865-10.161,11.337-8.646,15.473-25.068,6.925-35.966-4.734-6.035-9.492-11.709-16.845-14.864-5.337-2.289-10.28-5.49-15.421-8.244-2.176-1.165-2.463-2.544-.506-4.095,3.056-2.422,6.2-4.739,9.288-7.116,4.421-3.4,9.214-6.426,13.166-10.306,7.4-7.264,13.475-15.609,19.356-24.207,7.408-10.829,15.3-21.274,21.7-32.813a158.539,158.539,0,0,0,16.241-44.628A137.658,137.658,0,0,0,807.01,277.7c-.139-3.685-2.108-5.436-5.132-4.392-8.35,2.884-16.848,5.1-25.718,5.308-4.843.114-9.119-.919-12.6-5.16-4.6-5.6-9.4-11.352-15.163-15.619-12.539-9.28-25.371-18.1-40.5-23.252-12.375-4.218-25.015-7.343-37.83-8.215-24.584-1.673-49.105-.311-72.507,8.686-10.078,3.874-20.179,7.809-29.876,12.526-15.979,7.774-27.892,20.46-38.839,34.1a12.851,12.851,0,0,1-9.048,5.191,40.481,40.481,0,0,1-20.861-3.891c-4.323-2.045-8.035-5.378-12.024-8.13-2.292-1.581-4.083-1.185-4.187,1.731a45.817,45.817,0,0,0,.694,9.378c2.3,13.307,2.455,26.845,6.013,40.086a192.953,192.953,0,0,0,14.305,36.294c2.413,4.827,5.854,9.13,8.651,13.778,4.025,6.687,6.96,14,12.672,19.682,5.638,5.6,10.641,11.848,16.324,17.4a108.916,108.916,0,0,0,12.461,9.921c4.316,3.126,8.921,5.851,13.292,8.9,2.779,1.942,2.515,3.31-.59,4.751-7.273,3.376-14.219,7.082-19.4,13.608a39.56,39.56,0,0,0-9,22.14A26.468,26.468,0,0,0,558.1,499.638c7.654,1.994,15.2,5.129,23.433,4.242C582.761,503.747,584.062,504.305,585.563,504.587Zm-299,21.5c5.22,5.643,9.846,10.684,14.515,15.684,10.107,10.823,22.573,13.773,36.661,10.556,6.549-1.5,12.086-4.858,17.306-9.313a50.348,50.348,0,0,0,13.639-17.827c2.956-6.663,4.854-14,3.733-21.521-1.522-10.2-7.681-16.631-17.671-15.217-6.656.941-11.805,4.823-16.478,9.169-4.887,4.546-8.016,5.7-13.963,3.257-1.384-.567-3.342-2.239-3.262-3.265.11-1.408,1.665-3.078,3.039-3.935,2.829-1.765,6.059-2.879,8.927-4.591,8.416-5.024,13.519-14.087,8.533-24.232-1.607-3.268-3.457-6.428-5.371-9.529-1.339-2.171-1.771-3.634,1.1-5.057a94.25,94.25,0,0,0,11.319-6.653c5.565-3.81,11.509-7.336,16.224-12.05a166.074,166.074,0,0,0,16.863-20.321,82.429,82.429,0,0,0,8.811-16.061c2.761-6.512,4.7-13.377,6.881-20.125,1.3-4.016,2.592-4.719,6.555-3.395,5.508,1.84,11.12,3.39,16.563,5.4,9.306,3.433,18.939,3.261,28.6,3.019a3.614,3.614,0,0,0,3.348-5.149,15.79,15.79,0,0,0-1.834-3.882,31.261,31.261,0,0,1-6.061-20.753c.647-9.774,2.652-19.45,3.826-29.2.8-6.64,1.967-13.38,1.554-19.987-.626-10.022-6.559-17.815-14.36-23.4-9.376-6.711-20.563-8.372-31.663-5.784-14.126,3.293-26.183,10.349-34.131,23.128-2,3.218-3.791,3.687-7.057,1.967-2.192-1.154-4.6-2.129-6.4-3.744-7.5-6.7-16.944-9.427-26.012-12.721-5.129-1.862-10.829-2.142-16.265-3.172-14.072-2.666-28.155-4.259-42.56-2.85a141.091,141.091,0,0,0-35.642,7.97A102.167,102.167,0,0,0,200.208,304.7c-7.357,7.1-5.02,6.624-13.5-.067a2.554,2.554,0,0,1-.251-.258c-5.735-6.075-13.033-9.61-20.931-11.4-13.387-3.029-27.394,1.181-36.348,13.653a45.106,45.106,0,0,0-8.336,30.357c.549,7.307,3.686,14.656,6.778,21.483,5.184,11.447,7.632,22.705,2.109,34.675-1.177,2.549-.056,4.233,2.679,4.407,9.564.605,18.654-.863,26.98-5.985a81.748,81.748,0,0,1,9.079-4.729c2.285-1.035,4.041.063,4.658,2.347,4.2,15.557,12.478,28.624,23.827,39.943,1.16,1.156,1.579,3.571,1.471,5.349a22.728,22.728,0,0,1-1.857,6.454,35.013,35.013,0,0,0-.287,24.982c2.1,5.919,5.926,10.439,10.734,14.323,4.106,3.316,8.841,4.946,13.869,3.9,6-1.245,11.8-3.447,17.713-5.119a16.646,16.646,0,0,1,3.76-.192,23.023,23.023,0,0,1,.068,3.286c-.425,3.654-.983,7.292-1.436,10.943-1.287,10.369-2.473,20.751-3.836,31.11-2.116,16.068-3.712,32.105-2.34,48.39.91,10.808,3.251,20.906,9.839,29.652,9.91,13.157,27.435,11.535,35.23-2.394,5.157-9.215,4.409-19.129,3.746-29a208.611,208.611,0,0,1,.823-40.728C284.6,528.926,285.594,527.873,286.566,526.086Z" transform="translate(-94 -102)" style="fill: #fff"/>
  <path d="M952.75,557.609c-1.82,2.983-3.752,5.9-5.441,8.961-9.218,16.676-30.289,15.324-42.285,6.21-8.288-6.3-12.172-15.065-14.419-24.787-2.9-12.544-3.329-25.09.881-37.451,2.592-7.61,6.723-14.288,13.51-18.887a17.941,17.941,0,0,1,7.114-3.08c4.5-.655,6.986-2.77,7.082-7.308.17-8.075.309-16.155.2-24.229a4.741,4.741,0,0,0-2.3-3.417c-15.46-7.53-29.232-17.616-42.107-28.79-6.71-5.823-12.2-13.082-18.026-19.881-8.035-9.383-13.418-20.4-17.233-31.951-3.653-11.058-5.906-22.57-3.865-34.44,1.167-6.787,1.451-13.786,3.23-20.4,3.006-11.167,6.982-22.1,14.966-30.888a230.47,230.47,0,0,1,17.488-17.842c8.352-7.39,18.184-12.617,28.429-16.981,4.625-1.97,4.833-2.24,2.5-6.736-5.91-11.372-11.233-23-12.512-35.92-1.4-14.16-.64-28.12,8.268-40.095,5.233-7.033,11.176-13.455,20.834-14.5,8.651-.941,15.407,2.819,19.189,10.684,2.753,5.727,3.694,11.793,4.085,17.988,1.154,18.318,2.181,36.645,3.329,54.964.257,4.094,2,5.327,6.239,5.731,4.75.452,7.669-1.033,9.814-5.645a109.717,109.717,0,0,1,23.875-33.294c11.533-10.971,23.559-21.411,37.66-29.356a139.3,139.3,0,0,1,48.243-16.611c6.654-.993,13.567-.3,20.362-.275,2.8.009,4.266,1.7,4.029,4.39-.259,2.948-.431,6.063-1.515,8.753-5.784,14.358-11.371,28.848-20.4,41.61-7.489,10.59-15.162,21.049-22.677,31.62-1.407,1.979-4.246,3.852-1.616,6.8,2.694,3.018,7.006,3.857,10.071,1.84,5.072-3.338,10.015-6.871,15.05-10.266,12.192-8.222,25.707-13.51,39.9-16.807,10.6-2.462,21.4-4.635,32.221-5.456,8.313-.63,16.9.458,25.186,1.857,8.98,1.516,17.8,4.113,26.58,6.6,2.4.681,4.489,2.589,6.608,4.092,2.491,1.768,2.2,4.068.665,6.258-7.529,10.7-15.34,21.056-24.7,30.421a240.838,240.838,0,0,1-38.172,31.562,189.287,189.287,0,0,1-46.818,22.653c-5.249,1.66-5.6,3.173-3.483,8.118,5.266,12.322,9.059,25,9.34,38.6.263,12.773-1.02,25.084-6.018,37.092-7.1,17.048-17.166,31.5-32.66,41.888-3.512,2.354-3.582,3.334-1.58,6.91,8.253,14.747,21.1,24.4,35.635,32.15,10.234,5.453,21.323,8.07,32.78,9.026,6.66.556,13.37.633,20.059.687a69.554,69.554,0,0,0,41.589-12.933c7.713-5.451,12.564-13.276,15.835-21.993,2.194-5.845,3.015-7.063,7.827-1.9,5.731,6.151,9.009,13.651,12.357,21.153,4.472,10.022,5.97,20.77,6.955,31.492,1.024,11.156-1.417,22-5,32.609a121.081,121.081,0,0,1-21.534,38.48,100.763,100.763,0,0,1-41.334,29.887c-3.532,1.4-7.038,2.9-10.654,4.04a107.552,107.552,0,0,1-58.279,2.369,151.381,151.381,0,0,1-40.024-15.886c-11.978-6.871-22.676-15.279-33.114-24.157a22.625,22.625,0,0,0-4.182-2.269c-.518,1.617-1.583,3.275-1.466,4.844.784,10.45,2.282,20.865,2.648,31.323a271.836,271.836,0,0,1-.592,33.315c-.729,8.262-7.024,12.75-14.435,15.779-12.9,5.271-29.823.526-37.3-10.929-4.585-7.026-6.389-15.194-7.615-23.254-2.338-15.372-4.018-30.849-5.692-46.313-.9-8.3-1.2-16.668-1.815-25a15.706,15.706,0,0,0-.639-2.609Zm114.625-124.84-.681-1.348c-2,.433-3.984.923-5.994,1.289-7.048,1.281-14.119,3.668-21.154,3.575-31.106-.411-56.736-17.7-67.073-48.131-6.9-20.309-2.276-39.256,10.516-56.178,5.295-7,11.578-13.085,19.585-17.11,1.6-.807,3.172-2.129.9-3.721-2.671-1.868-2.85-4.41-2.976-7.252-.294-6.694-.633-13.394-1.254-20.063-.456-4.893-2.3-6.05-6.669-3.969-7.657,3.648-15.236,7.491-22.629,11.644-2.964,1.665-5.629,3-9.079,2.073-1.851-.5-3.037.014-3.538,2.3-1.761,8.034-2.93,16.342-5.874,23.945-8.79,22.7-24.338,38.33-49.293,42.009-15.783,2.327-30.109-2.281-42.589-12.261-3.689-2.95-7.186-6.139-11.2-9.588-.413,1.336-.95,2.2-.891,3.017.5,6.916.3,14.006,1.831,20.7,4.029,17.64,14.209,31.985,26.167,45.146a112.071,112.071,0,0,0,27.794,22.51c9.986,5.637,20.009,11.322,30.462,15.988a140.562,140.562,0,0,0,43.53,11.588,150.054,150.054,0,0,0,39.365-1.492c14.729-2.408,28.155-8.492,40.578-16.679C1060.791,438.4,1063.995,435.449,1067.375,432.769Zm11.359-54.092-1.141.357a50.926,50.926,0,0,1,1.129,5.746,23.714,23.714,0,0,1-.117,6.4,17.708,17.708,0,0,1-2.18,4.865c-2.493,4.585-4.645,9.473-10.281,11.272-.706.226-.958,1.619-1.659,2.161-2.653,2.053-5.318,5.407-8.142,5.578-3.286.2-6.559-1.842-8.054,2.872-.024.078-.2.136-.315.154-7.448,1.133-14.938,2.855-21.73-2.381a8.094,8.094,0,0,0-3.538-1.17c-3.473-.58-7.634.007-10.321-1.727-6.277-4.05-11.862-9.174-17.683-13.917a4.259,4.259,0,0,1-1.025-1.87c-4.316-12.143-7.555-24.2-4.854-37.5,2.72-13.394,12.357-24.868,25.784-28.5a99.135,99.135,0,0,0,11.206-4.3c1.9-.774,2.355-2.24.777-3.606-5.4-4.676-13.085-9.467-21.145-5.01a66.793,66.793,0,0,0-17.88,14.822c-10.756,12.267-15.653,26.732-13.672,42.864,2.684,21.858,15.109,37.726,33.935,48.024,24.4,13.348,48.066,9.714,70.264-6.016a19.984,19.984,0,0,0,5.726-6.729c6.816-12.717,8.757-26.479,8.185-40.732-.151-3.759-1.99-6.218-5.067-8.115-2.142-1.321-3.558-.878-3.813,1.525-.376,3.558-.308,7.16-.535,10.737-.123,1.941-.464,3.869-.753,6.166ZM900.81,200.081l-.986.183c1.64,7.912,2.719,16,5.1,23.682,1.954,6.321,5.365,12.206,8.3,18.2a5.348,5.348,0,0,0,6,2.981c4.376-.623,8.752-1.255,13.136-1.811,2.727-.346,3.478-1.779,3.258-4.452-1.487-18.123-2.709-36.269-4.362-54.376a36.43,36.43,0,0,0-3.351-11.207c-1.629-3.652-5.9-5.726-9.206-4.815-5.424,1.493-10.239,3.9-12.861,9.44C902.5,184.947,900.5,192.234,900.81,200.081Zm93.441,408.113.017-.38c3.827,0,7.656.091,11.478-.033,2.43-.079,3.75-1.516,3.546-4q-1.609-19.662-3.29-39.318c-.234-2.756-1.815-4.253-4.5-4.832-10.4-2.25-20.773-4.65-31.2-6.793-4.419-.908-5.309-.167-5.017,4.311.921,14.08,1.944,28.156,3.175,42.211.473,5.4,1.341,6.218,6.859,6.978C981.6,607.2,987.941,607.6,994.251,608.194Zm84.974-71.256.417.9c2.491-1.372,5.7-2.193,7.289-4.257,1.934-2.506.174-5.539-1.827-7.771-3.112-3.471-6.015-7.262-9.635-10.124-12.205-9.649-24.506-19.2-37.133-28.284-7.165-5.154-14.947-9.487-22.669-13.8-1.624-.908-5.118-.947-6.1.124-1.109,1.212-.411,4.126-.377,6.3a3.27,3.27,0,0,0,.758,1.61c5.909,8.252,11.343,16.908,17.883,24.629,8.582,10.133,19.609,17.553,31.061,24.13C1065.114,533.97,1071.749,536.913,1079.225,536.938ZM885.3,356.041q.312-.649.626-1.3c-1.862-2.448-3.474-5.146-5.629-7.3-10.171-10.176-13.641-22.8-13.426-36.659.2-13.053,7.031-20.542,16.9-25.323,5.833-2.824,12.543-3.91,18.922-5.526,12.231-3.1,23.486-.585,33.634,6.68,3.263,2.336,5.924,5.5,9.1,7.973,1.254.977,3.165,1.112,4.777,1.631.172-2.062.714-4.189.372-6.162-.194-1.117-1.67-2.382-2.863-2.887-3.626-1.536-7.379-2.78-11.114-4.045-2.153-.729-4.491-1.023-6.511-2-1.355-.655-2.942-2.025-3.22-3.331-.218-1.027,1.149-2.8,2.27-3.615a81.077,81.077,0,0,1,7.414-4.354q1.4-.8,2.8-1.608l-.442-1.091c-4.794,1.309-9.935,1.919-14.307,4.081-7.6,3.757-14.432,4-21.951-.285-4.039-2.3-8.879-3.452-13.7-.5-19.8,12.111-34.093,28.361-39.9,51.359a13.471,13.471,0,0,0,1.612,11.262c6.749,10.717,16.662,17.312,28.219,21.727C880.9,355.529,883.161,355.632,885.3,356.041Zm38.1,173.6c3.517-.492,8.874-1.013,14.132-2.041,5.676-1.109,6.228-2.365,4.57-7.993a37.561,37.561,0,0,0-12.6-18.81c-5.516-4.509-15.1-4.788-20.81-.493-6.859,5.163-8.822,12.893-10.232,20.725-.912,5.061.355,6.535,5.494,7.077C909.792,528.726,915.657,529.05,923.405,529.646Zm-6.671,2.586,0-.14c-3.223,0-6.449-.084-9.669.023-3.421.113-4.672,1.567-3.04,4.525,1.842,3.342,4.192,6.82,7.211,9.02,8.048,5.866,17.743,1.476,19.417-8.288.461-2.695-.493-4.2-3.2-4.423C923.885,532.651,920.307,532.466,916.734,532.232Zm67.389,78.5c-1.768,0-3.209-.11-4.627.025-2.306.22-3.184,1.467-2.227,3.7,2.6,6.062,6.656,10.4,13.532,11.439,6.067.919,12.215-3.677,12.941-9.584.348-2.832-.581-4.326-3.528-4.5C994.736,611.481,989.262,611.078,984.123,610.73ZM907.385,320.449a34.312,34.312,0,0,0,1.373,5.488c1.786,4.181,5.516,5.3,9.417,3.045,4.852-2.8,8.2-9.851,7.276-15.317-.644-3.813-3.148-5.83-7.022-5.658C912.052,308.291,907.682,313.317,907.385,320.449ZM1025.566,373.2c.928,1.42,2,4.629,4.2,5.919,1.663.975,5.055.067,7.167-1.006,4.538-2.306,6.317-6.774,6.673-11.579a7.538,7.538,0,0,0-3.918-7.546c-2.955-1.6-5.564-.357-8,1.361C1027.781,363.105,1026.192,367.106,1025.566,373.2ZM1046.72,316l-1.511.329a60.059,60.059,0,0,0,.4,6.545c.1.61,1.309,1.044,2.009,1.559.44-.748,1.374-1.615,1.228-2.222A60.5,60.5,0,0,0,1046.72,316Zm19.018,83.637-1.765.055a31.543,31.543,0,0,0,.094,4.013c.022.168,1.329.171,2.041.251Z" transform="translate(-94 -102)"/>
  <path d="M585.563,505.894c-1.5-.282-2.8-.84-4.029-.708-8.237.888-15.779-2.247-23.433-4.241a26.468,26.468,0,0,1-19.942-27.114,39.56,39.56,0,0,1,9-22.14c5.178-6.527,12.124-10.232,19.4-13.608,3.105-1.441,3.369-2.809.59-4.751-4.371-3.054-8.976-5.78-13.292-8.9a108.916,108.916,0,0,1-12.461-9.921c-5.683-5.553-10.686-11.8-16.324-17.4-5.712-5.678-8.647-13-12.672-19.682-2.8-4.648-6.238-8.951-8.651-13.778a192.98,192.98,0,0,1-14.305-36.294c-3.558-13.241-3.711-26.78-6.013-40.086a45.817,45.817,0,0,1-.694-9.378c.1-2.916,1.895-3.312,4.187-1.731,3.989,2.751,7.7,6.084,12.024,8.13a40.491,40.491,0,0,0,20.861,3.891,12.851,12.851,0,0,0,9.048-5.191c10.947-13.638,22.86-26.325,38.839-34.1,9.7-4.717,19.8-8.652,29.876-12.526,23.4-9,47.923-10.359,72.507-8.686,12.815.871,25.455,4,37.83,8.214,15.125,5.154,27.957,13.972,40.5,23.253,5.765,4.267,10.567,10.015,15.163,15.618,3.48,4.241,7.756,5.275,12.6,5.16,8.87-.21,17.368-2.423,25.718-5.307,3.024-1.045,4.993.707,5.132,4.392a137.65,137.65,0,0,1-2.567,33.823A158.534,158.534,0,0,1,788.2,357.458c-6.4,11.539-14.288,21.984-21.7,32.813-5.881,8.6-11.96,16.943-19.356,24.207-3.952,3.88-8.745,6.906-13.166,10.306-3.092,2.377-6.232,4.693-9.288,7.116-1.957,1.551-1.67,2.93.506,4.1,5.141,2.753,10.084,5.955,15.421,8.244,7.353,3.155,12.111,8.829,16.845,14.864,8.548,10.9,4.412,27.32-6.925,35.966-9.12,6.955-19.232,10.627-30.865,10.161-7.155-.287-14.3.262-20.936-3.457-2.833-1.586-5.113.523-4.652,3.795,2.533,17.969,5.392,35.9,7.476,53.921,1.423,12.3,2.008,24.719,2.517,37.1.557,13.545-5.249,24.963-13.618,35.028-4.952,5.955-12.209,5.822-19.2,4.735-13.4-2.084-20.3-10.788-24.1-23.209-2.944-9.623-3.394-19.419-3.852-29.268-.7-15.039-1.184-30.089-1.8-45.133a24.063,24.063,0,0,0-.659-5.646c-.365-1.268-1.425-3.209-2.286-3.269-1.5-.1-4.038.616-4.475,1.677a168.672,168.672,0,0,0-7.237,20.022c-3.006,11.108-5.161,22.443-8.075,33.578-1.739,6.646-4.116,13.137-6.427,19.62-4.118,11.553-12.648,18.157-24.407,20.581-8.751,1.8-17.418,1.528-24.921-4.175-4.907-3.73-9.963-7.658-9.82-14.722a83.465,83.465,0,0,1,1.159-12.578c1.908-10.959,6.037-21.228,10.168-31.5,5.447-13.544,10.7-27.166,16-40.768q2.462-6.314,4.719-12.705A13.182,13.182,0,0,0,585.563,505.894ZM764.392,373.809l-.741-.885c-1.523.5-3.094.892-4.561,1.524-24.213,10.429-49.856,4.257-66.556-17.381-11-14.258-13.822-31.034-13.135-48.557.135-3.42-.317-5.892-3.5-7.86-3.557-2.2-4.38-6.132-4.571-10.042-.041-.834.926-1.717,1.43-2.577a19.217,19.217,0,0,1,2.5,1.682c.4.365.477,1.079.727,1.624,2.042,4.447,3.662,5.441,8.167,3.737,8.063-3.051,15.985-6.476,23.941-9.805a29.859,29.859,0,0,0,3.72-2.425,34.3,34.3,0,0,0-4.66-1.156,82.235,82.235,0,0,0-11.471-.572c-4.594.288-7.432-1.435-10.188-5.133-6.858-9.2-14.262-18-21.468-26.943-1.867-2.318-3.825-2.208-5.661.042a42.488,42.488,0,0,0-4.128,5.425c-3.768,6.538-7.514,13.1-10.962,19.807-1.649,3.21-3.939,4.44-7.4,4.6-7.78.349-15.551.9-23.318,1.477-1.259.093-2.478.72-4.54,1.353a28.247,28.247,0,0,0,3.01,1.673c6.98,2.546,13.946,5.134,20.972,7.545,5.665,1.943,11.37,3.795,17.129,5.434,5.381,1.531,7.936-.226,8.911-5.668a13.008,13.008,0,0,1,.812-3.842c.522-.964,1.747-1.547,2.662-2.3.669.99,1.973,2.035,1.893,2.96a38.179,38.179,0,0,1-1.688,9.15c-1.357,3.916-4.284,6.493-8.678,6.269-3.761-.192-4.607,1.588-4.119,4.792.126.829.22,1.666.263,2.5.979,19.01-2.854,36.775-14.514,52.181-8.836,11.674-21.089,18.579-34.8,23.088-11.391,3.744-22.977,3.933-34.821,2.6-10.031-1.134-19.582-3.3-28.374-8.384-3.58-2.07-7.231-4.018-11.773-6.532a36.85,36.85,0,0,0,1.153,4.5,70.212,70.212,0,0,0,20.215,26.667,141.234,141.234,0,0,0,31.169,19.766,131.739,131.739,0,0,0,39.516,11.544c19.748,2.416,39.635,3.173,59.5.269,20.493-3,39.42-9.706,56.164-22.2,13.057-9.739,22.645-22.274,30.359-36.41A31.3,31.3,0,0,0,764.392,373.809ZM606.373,290.467l.471-.548A52.158,52.158,0,0,0,600.3,287c-5.094-1.507-9.977-3.907-15.665-2.772-4.906.978-9.957,1.2-14.931,1.863q-14.919,1.974-29.821,4.075a12.044,12.044,0,0,0-8.627,5.855,92.3,92.3,0,0,0-14.587,44.613c-.775,11.287,2.276,21.19,11.953,28.808,13.339,10.5,28.336,15.243,44.981,15.57,28.387.559,49.984-10.77,62.178-37.04a76.557,76.557,0,0,0,6.866-38.784c-.465-5.892-2.694-8.792-8.22-10.392-6.287-1.82-12.333-4.466-18.508-6.685a15.259,15.259,0,0,0-3.02-.454l-.193,1.007a22.208,22.208,0,0,1,4.174,1.759c3.613,2.461,8.125,4.422,10.418,7.833,4.812,7.154,7.982,15.075,7.152,24.279-1.635,18.12-10.015,26.343-23.684,30.99-15.342,5.215-30.377,4.048-43.241-7.9-7.758-7.2-11.447-16.124-10.239-26.071,2.2-18.117,12.9-27.793,30.02-30.967C593.575,291.428,600.011,291.149,606.373,290.467Zm128.738-5.136-.092-.571c-4.583.671-9.487.524-13.687,2.17-11.221,4.4-22.169,9.5-33.134,14.525a4.954,4.954,0,0,0-2.461,3.622c-.025,7.033-.381,14.183.737,21.072,1.231,7.59,2.855,15.276,7.345,21.949,2.1,3.122,3.131,7.023,5.461,9.915,10.913,13.537,25.787,18.085,42.37,16.284,21.323-2.315,36.936-17.052,35.9-39.822-.767-16.935-5.794-32.2-16.109-45.611a9.69,9.69,0,0,0-6.286-3.375C748.5,285.051,741.8,285.331,735.111,285.331Zm-130.578,303,.263-.91c6.789.04,7.113-.18,9.308-6.462.356-1.017.638-2.06.966-3.087q5.5-17.266,11.012-34.531c.546-1.712,1.185-3.4,1.633-5.135,1.816-7.047.655-9.157-6.518-10.651-9.025-1.881-18.136-3.348-27.171-5.183-3.22-.653-5.052.439-6.129,3.369-1.53,4.159-3,8.347-4.692,12.439-4.494,10.846-9.161,21.621-13.623,32.479-1.709,4.157-1.149,5.48,2.937,7.363a79.753,79.753,0,0,0,9.721,3.751C589.637,584.065,597.1,586.156,604.533,588.329Zm46.533-29.771-.629,0c0,8.252-.176,16.511.162,24.75.062,1.49,2.044,3.912,3.462,4.177a72.14,72.14,0,0,0,36.829-2.316c2.732-.921,3.805-2.957,3.6-5.881-.427-6.208-.525-12.441-1.052-18.638-.832-9.768-1.868-19.52-2.908-29.269-.26-2.441-1.168-4.32-4.317-4.059-10.014.833-20.035,1.622-30.067,2.208-3.65.213-5.132,1.824-5.1,5.358C651.11,542.775,651.066,550.667,651.066,558.558Zm.6-36.057c12.087-1.049,21.741-1.916,31.4-2.708,2.873-.236,4.112-1.76,3.832-4.5-.412-4.039-1.094-8.054-1.414-12.1-.568-7.173-2.057-8.26-9.366-7.464a173.693,173.693,0,0,1-43-.193c-7.937-1.109-15.866-2.273-23.779-3.539-2.593-.415-4.468.14-5.586,2.633-.969,2.162-2.011,4.29-2.976,6.454-1.648,3.7-3.374,7.366-4.846,11.133-.852,2.18.061,3.707,2.474,4.206a77.27,77.27,0,0,0,7.718,1.659C622.06,519.7,638.017,521.191,651.664,522.5Zm63.706-23.716c12.685-1.043,24.456-3.412,33.929-12.46,7.63-7.287,7.439-15.724.178-23.253-9.21-9.551-20.468-15.277-32.944-18.91a64.7,64.7,0,0,0-11.943-2.048c-1.077-.1-2.5,1.2-3.334,2.209-.236.286.937,1.939,1.676,2.779,2.835,3.225,6.017,6.179,8.578,9.6,3.019,4.036,2.779,8.572-.813,12.093a89.434,89.434,0,0,1-10.9,8.665c-3.125,2.224-5.372,4.583-4.91,8.824.486,4.452,2.25,8,6.639,9.331C706.046,496.987,710.748,497.754,715.37,498.785ZM605.583,446.064c-8.1-2.485-14.753-5.752-22.348-3.144-3.046,1.046-6.227,1.693-9.313,2.628-13.177,3.991-22.9,11.915-27.165,25.274-1.776,5.561-3.072,12.079,2.455,16.321,10.869,8.342,23.128,12.579,36.949,8.885,8.873-2.372,11.771-9.938,7.281-17.959-1.4-2.5-3.051-4.868-4.4-7.394-2.786-5.2-1.871-10.48,2.643-14.2,3.131-2.579,6.55-4.805,9.825-7.211C602.6,448.466,603.635,447.6,605.583,446.064Zm75.607,9.855c-.139-6-.942-6.544-6.962-6.057-8.095.656-16.211,1.415-24.319,1.423-8.232.008-16.464-.88-24.7-1.291-2.323-.116-5.033-.669-5.237,3.086-.215,3.955,1.634,6.848,4.8,6.974q19.347.767,38.7,1.385c1.487.045,2.982-.667,4.493-.8,1.464-.128,3.156-.4,4.394.162C676.613,462.745,681.291,460.286,681.19,455.919ZM585.352,601.257c5.582.308,9.655-2.227,12.642-6.75,1.424-2.158,1.051-4.03-1.452-4.854-6.928-2.282-13.9-4.426-20.885-6.538-3-.9-4.1.543-4.2,3.476C571.135,595.459,576.287,600.965,585.352,601.257Zm13.642-288.176c-5.845.052-10.438,4.313-10.4,9.65.033,4.886,5.145,9.018,11.129,8.994s10.934-4.4,10.91-9.68C610.611,317.389,604.951,313.029,598.994,313.081Zm73.925,293.461c5.776.345,12.51-6.281,11.879-12.016-.118-1.066-1.86-2.806-2.824-2.788-6.337.123-12.673.564-19,1.07-2.488.2-3.127,1.828-2.388,4.133A14.558,14.558,0,0,0,672.919,606.542ZM688.805,461.5l.716.479a33.117,33.117,0,0,0,.706,3.465c.709,2.272,1.538,4.506,2.317,6.756,2.516-1.2,5.524-1.882,7.445-3.708,3.856-3.662,5.486-6.928.861-10.4-2.428-1.821-5.381-2.944-8.1-4.383Zm-89.446,14.736a14.94,14.94,0,0,0,1.43-1.026c4.317-4.1,5.055-9.712,6.323-15.086.676-2.864-.273-4.013-2.778-2.961-3.776,1.587-7.768,3.14-9.291,7.615C593.376,469.669,596.084,472.862,599.359,476.232Z" transform="translate(-94 -102)"/>
  <path d="M286.566,526.086c-.972,1.787-1.963,2.84-2.113,4a208.611,208.611,0,0,0-.823,40.728c.663,9.867,1.411,19.781-3.746,29-7.8,13.929-25.32,15.551-35.23,2.394-6.588-8.746-8.929-18.844-9.839-29.652-1.372-16.285.224-32.322,2.34-48.39,1.363-10.359,2.549-20.741,3.836-31.11.453-3.651,1.011-7.289,1.436-10.943a23.023,23.023,0,0,0-.068-3.286,16.646,16.646,0,0,0-3.76.192c-5.917,1.672-11.714,3.874-17.713,5.119-5.028,1.044-9.763-.586-13.869-3.9-4.808-3.884-8.632-8.4-10.734-14.323a35.013,35.013,0,0,1,.287-24.982,22.728,22.728,0,0,0,1.857-6.454c.108-1.778-.311-4.193-1.471-5.349-11.349-11.319-19.624-24.386-23.827-39.943-.617-2.284-2.373-3.382-4.658-2.347a81.748,81.748,0,0,0-9.079,4.729c-8.326,5.122-17.416,6.59-26.98,5.985-2.735-.174-3.856-1.858-2.679-4.407,5.523-11.97,3.075-23.228-2.109-34.675-3.092-6.827-6.229-14.176-6.778-21.483a45.106,45.106,0,0,1,8.336-30.357c8.954-12.472,22.961-16.682,36.348-13.653,7.9,1.788,15.2,5.323,20.931,11.4a2.554,2.554,0,0,0,.251.258c8.476,6.691,6.139,7.171,13.5.067A102.167,102.167,0,0,1,235.821,282.5a141.091,141.091,0,0,1,35.642-7.97c14.4-1.409,28.488.184,42.56,2.85,5.436,1.03,11.136,1.31,16.265,3.172,9.068,3.294,18.516,6.025,26.012,12.721,1.809,1.615,4.213,2.59,6.4,3.744,3.266,1.72,5.055,1.251,7.057-1.967,7.948-12.779,20-19.835,34.131-23.128,11.1-2.588,22.287-.927,31.663,5.784,7.8,5.583,13.734,13.376,14.36,23.4.413,6.607-.754,13.347-1.554,19.987-1.174,9.748-3.179,19.424-3.826,29.2a31.261,31.261,0,0,0,6.061,20.753,15.79,15.79,0,0,1,1.834,3.882,3.614,3.614,0,0,1-3.348,5.149c-9.656.242-19.289.414-28.6-3.019-5.443-2.008-11.055-3.558-16.563-5.4-3.963-1.324-5.257-.621-6.555,3.395-2.182,6.748-4.12,13.613-6.881,20.125a82.429,82.429,0,0,1-8.811,16.061,166.074,166.074,0,0,1-16.863,20.321c-4.715,4.714-10.659,8.24-16.224,12.05a94.25,94.25,0,0,1-11.319,6.653c-2.869,1.423-2.437,2.886-1.1,5.057,1.914,3.1,3.764,6.261,5.371,9.529,4.986,10.145-.117,19.208-8.533,24.232-2.868,1.712-6.1,2.826-8.927,4.591-1.374.857-2.929,2.527-3.039,3.935-.08,1.026,1.878,2.7,3.262,3.265,5.947,2.439,9.076,1.289,13.963-3.257,4.673-4.346,9.822-8.228,16.478-9.169,9.99-1.414,16.149,5.018,17.671,15.217,1.121,7.519-.777,14.858-3.733,21.521a50.348,50.348,0,0,1-13.639,17.827c-5.22,4.455-10.757,7.818-17.306,9.313-14.088,3.217-26.554.267-36.661-10.556C296.412,536.77,291.786,531.729,286.566,526.086Zm86.626-119.478-.748-.905c-1.229.322-2.445.7-3.687.957-8.666,1.772-17.267,4.3-26.023,5.084-12.142,1.089-23.638-2.523-33.822-9.025-6.279-4.008-12.662-8.612-17.246-14.348-8.274-10.353-10.5-22.858-8.813-36.024,1.124-8.786,4.1-16.96,7.9-24.874,1.076-2.238.748-3.557-1.606-4.9q-14.487-8.265-28.71-16.988c-2.574-1.587-4.361-1.777-6.608.389-6.03,5.814-12.132,11.561-18.359,17.164-3.815,3.434-4.088,4.158-1.8,8.87a74.626,74.626,0,0,1,7.717,26.767c1.871,23.977-14.631,49.061-42.591,51.068a27.34,27.34,0,0,0-3.976,1.07c3.155,3.449,5.553,6.366,8.313,8.886.71.649,2.722.412,3.848-.078,1.246-.542,2.187-1.815,3.218-2.814,8.5-8.239,17.986-14.294,30.428-14.22,1.233.008,2.728-1.165,3.655-2.193,1.6-1.776,3.426-1.749,3.8.275.875,4.693,4.715,6.42,7.769,8.958,6.425,5.338,9.141,4.791,13.337-2.592.586-1.029.741-2.354,1.463-3.243a20.867,20.867,0,0,1,3.22-2.7c.392,1.327,1.388,2.824,1.071,3.952-1.384,4.92-3.729,9.417-8.083,12.386a4.677,4.677,0,0,0-2.106,5.846c2.171,7.164.952,14.252-.467,21.328-.846,4.216-.482,4.667,3.722,5.434,17.782,3.244,35.142,1.156,52.105-4.466,20.347-6.743,38.046-17.5,50.867-35.192A39.146,39.146,0,0,0,373.192,406.608Zm68.426-95.837c.223-18.448-9.373-29-24.369-30.471a37.551,37.551,0,0,0-22.735,5.221c-18.193,10.467-25.028,25.855-15.964,45.9,10.881,24.065,31.735,35.83,57.458,39.365,4.613.634,5.074-.073,3.362-4.589-4.237-11.175-5.173-22.335-1.746-34.076C439.953,324.141,440.734,315.708,441.618,310.771Zm-93.131,18.077c4.192,0,8.385-.062,12.576.019,3.481.067,4.24-.66,3.873-4.2-.309-2.977-.5-5.981-1.069-8.911-.347-1.793-.827-4.011-2.071-5.1a81.813,81.813,0,0,0-12.24-9.254c-8.7-5.079-18.188-8.263-27.928-10.986a136.7,136.7,0,0,0-64.386-2.479c-16.463,3.29-31.8,9.587-44.675,21a89.727,89.727,0,0,0-19.125,23.088c-.626,1.112-.478,2.66-.689,4.006,1.269.07,2.67.526,3.783.144,6.292-2.159,12.793-3.961,18.7-6.92,14.444-7.23,26.076-18.135,36.855-29.961,3.516-3.857,5.279-4.015,9.279-.8,13.951,11.224,29.295,20.018,46.644,24.7C321.216,326.764,334.676,329.205,348.487,328.848Zm36.228,49.27c-1.456.624-2.61,1.177-3.8,1.62-3.7,1.37-7.308,3.321-11.132,3.944-29.051,4.731-49.322-22.091-40.44-45.088,1.585-4.105.935-5.011-3.321-6.118-8.672-2.256-17.39-4.339-26.083-6.518-2.683-.673-4.552.069-5.95,2.6-6.415,11.614-9.9,23.969-8.416,37.233a38.41,38.41,0,0,0,9.508,21.767c22.156,24.414,54.873,26.918,82.212,10.908C382.2,395.591,386.3,384.491,384.715,378.118Zm-227.169-76.96a94.817,94.817,0,0,0-9.444,2.6c-13.278,4.948-21.181,19.3-17.765,33.036,1.983,7.974,4.942,15.708,7.531,23.527,2.776,8.386,6.508,16.591,4.2,25.813-.786,3.145,1.3,3.179,3.347,2.654,9.909-2.529,17.472-8.564,23.744-16.356.819-1.018.971-2.654,1.211-4.043,1.138-6.592,1.832-13.285,3.378-19.778a90.726,90.726,0,0,1,10.3-25.158c1.361-2.3,3.194-4.773,1.019-7.609C178.456,307.223,169.853,302.182,157.546,301.158ZM203.4,452.876c.835,3.826,1.374,7.747,2.565,11.458a16.5,16.5,0,0,0,22.469,9.829,40.028,40.028,0,0,0,7.893-4.9c12.8-10.15,19.684-23.275,18.756-39.8-.643-11.438-10.614-18.315-21.736-15.658-5.829,1.392-10.465,4.792-14.449,8.918-3.116,3.228-5.481,7.179-8.188,10.8C206.448,439.23,203.683,445.456,203.4,452.876Zm73.209,94.7h.089c0-5.977-.124-11.958.054-17.93.085-2.882-.876-4.264-3.812-4.291q-12.02-.112-24.037-.343c-2.689-.054-4.195,1.354-4.3,3.8-.563,12.773-1.063,25.552-1.293,38.333-.022,1.246,1.736,3.3,3.036,3.666a51.459,51.459,0,0,0,26.232.111c3.17-.762,4.124-2.731,4.066-5.766C276.528,559.292,276.608,553.431,276.608,547.572Zm52.99-1.079a32.608,32.608,0,0,0,18.537-6.55,6.784,6.784,0,0,0,2.98-6.83,34.86,34.86,0,0,0-9.59-20.044c-.816-.836-1.892-1.929-2.9-1.985-6.471-.358-13.242-1.716-19.364-.325-7.458,1.694-14.376,5.765-21.521,8.821-2.607,1.115-3.129,2.9-1.318,5.079,3.738,4.506,7.273,9.238,11.436,13.323C313.857,543.867,321.61,545.924,329.6,546.493ZM260.079,519.03c16.238-.16,31.648-2.764,46.14-9.916,8.559-4.224,8.669-4.33,3.929-12.517-1.291-2.23-2.8-2.875-5.305-2.307-16.556,3.762-33.234,5.82-50.184,2.971-3.1-.521-4.926.8-5.47,3.709-.811,4.345-1.448,8.726-2.037,13.108-.38,2.824,1.065,4.252,3.865,4.41C254.121,518.663,257.224,518.858,260.079,519.03ZM188.022,346.561l-.91-.161a29.113,29.113,0,0,0-2.594,4.867c-5.142,16.4-4.62,32.522,2.454,48.34a8.981,8.981,0,0,0,8.655,5.789c15.216.531,26.579-5.862,34.186-18.96a50.8,50.8,0,0,0,2.483-6.193c-4.145,1.113-7.114,1.943-10.1,2.707-14.134,3.613-27.863-3.872-31.89-17.825-1.308-4.532-1.383-9.423-1.976-14.155C188.148,349.51,188.12,348.031,188.022,346.561ZM323.86,457.851a48.7,48.7,0,0,1-5.336,1.767c-3.471.768-4.647,2.885-4.357,6.243.309,3.564.346,7.152.7,10.71.9,9.044,2.264,10.539,10.484,6.961.652-.284,1.386-.377,2.049-.641,7.7-3.072,10.888-10.962,6.661-17.248C331.72,462.158,329.331,458.316,323.86,457.851Zm43.558-101.888a20.827,20.827,0,0,0,2.284-.383c5.814-1.488,7.516-5.594,4.482-10.7-1.345-2.264-2.675-4.538-3.972-6.829-2.546-4.5-7.158-5.284-11.066-1.864a10.875,10.875,0,0,0-3.394,12A12.412,12.412,0,0,0,367.418,355.963Zm-138.136,4.326c2.024-1.273,4.493-2.164,5.979-3.9,3.112-3.631-.145-16.312-4.5-18.3a7.76,7.76,0,0,0-3.843-.5c-5.879.6-9.705,7.515-7.937,14.16C220.284,356.659,223.962,359.581,229.282,360.289ZM302.5,465.233q-.19-.821-.38-1.641c-1.824-.144-3.647-.4-5.472-.413-7.9-.072-15.8.054-23.7-.16-3.693-.1-7.372-1.1-11.054-1.081-1.242.007-2.474,1.9-3.711,2.928.952,1.111,1.769,3.024,2.876,3.21,12.348,2.074,24.738,3.013,37.013-.5A23.592,23.592,0,0,0,302.5,465.233Zm-43.156,110.83v-.017c-1.915,0-3.833-.053-5.746.012-3.5.117-4.425,1.424-3.513,4.829a9.521,9.521,0,0,0,9.717,6.952,10.271,10.271,0,0,0,8.9-8.58c.215-2.185-.9-3.119-2.9-3.181C263.653,576.01,261.5,576.063,259.341,576.063Zm95.51-59.973c-3-.006-4.443,1.742-3.535,4.588a60.287,60.287,0,0,0,3.115,7.959,3.16,3.16,0,0,0,2.591,1.477c2.22-.461,5.383-5.876,5.019-8.038C361.542,519.121,357.909,516.1,354.851,516.09Z" transform="translate(-94 -102)"/>
  <path d="M1067.375,432.769c-3.38,2.68-6.584,5.627-10.173,7.992-12.423,8.187-25.849,14.271-40.578,16.679a150.054,150.054,0,0,1-39.365,1.492,140.562,140.562,0,0,1-43.53-11.588c-10.453-4.666-20.476-10.351-30.462-15.988a112.071,112.071,0,0,1-27.794-22.51c-11.958-13.161-22.138-27.506-26.167-45.146-1.528-6.692-1.334-13.782-1.831-20.7-.059-.819.478-1.681.891-3.017,4.016,3.449,7.513,6.638,11.2,9.588,12.48,9.98,26.806,14.588,42.589,12.261,24.955-3.679,40.5-19.313,49.293-42.009,2.944-7.6,4.113-15.911,5.874-23.945.5-2.288,1.687-2.8,3.538-2.3,3.45.924,6.115-.408,9.079-2.073,7.393-4.153,14.972-8,22.629-11.644,4.366-2.081,6.213-.924,6.669,3.969.621,6.669.96,13.369,1.254,20.063.126,2.842.3,5.384,2.976,7.252,2.277,1.592.709,2.914-.9,3.721-8.007,4.025-14.29,10.106-19.585,17.11-12.792,16.922-17.413,35.869-10.516,56.178,10.337,30.435,35.967,47.72,67.073,48.131,7.035.093,14.106-2.294,21.154-3.575,2.01-.366,4-.856,5.994-1.289Zm-135.332-32.4c1.485-.731,5.121-1.527,7.2-3.766,3.679-3.96,6.481-8.751,9.506-13.291,1.206-1.809,1.048-3.848-1-4.981-2.3-1.275-3.073.834-4.044,2.3-2.237,3.382-4.334,6.872-6.776,10.1-2.574,3.4-6.426,4.589-9.782,3.336-3.879-1.449-5.1-4.8-4.8-8.386.336-4.118,1.632-8.149,2.183-12.261.186-1.389-.629-2.912-.986-4.374-1.339.9-3.6,1.6-3.86,2.742-1.192,5.311-2.453,10.741-2.51,16.14C917.1,395.271,922.861,400.259,932.043,400.371Z" transform="translate(-94 -102)" style="fill: #fff"/>
  <path d="M1078.734,378.677l3.1,1.963c.289-2.3.63-4.225.753-6.166.227-3.577.159-7.179.535-10.737.255-2.4,1.671-2.846,3.813-1.525,3.077,1.9,4.916,4.356,5.067,8.115.572,14.253-1.369,28.015-8.185,40.732a19.984,19.984,0,0,1-5.726,6.729c-22.2,15.73-45.861,19.364-70.264,6.016-18.826-10.3-31.251-26.166-33.935-48.024-1.981-16.132,2.916-30.6,13.672-42.864a66.793,66.793,0,0,1,17.88-14.822c8.06-4.457,15.74.334,21.145,5.01,1.578,1.366,1.128,2.832-.777,3.606a99.135,99.135,0,0,1-11.206,4.3c-13.427,3.628-23.064,15.1-25.784,28.5-2.7,13.3.538,25.361,4.854,37.5a4.259,4.259,0,0,0,1.025,1.87c5.821,4.743,11.406,9.867,17.683,13.917,2.687,1.734,6.848,1.147,10.321,1.727a8.094,8.094,0,0,1,3.538,1.17c6.792,5.236,14.282,3.514,21.73,2.381.114-.018.291-.076.315-.154,1.5-4.714,4.768-2.674,8.054-2.872,2.824-.171,5.489-3.525,8.142-5.578.7-.542.953-1.935,1.659-2.161,5.636-1.8,7.788-6.687,10.281-11.272a17.708,17.708,0,0,0,2.18-4.865,23.714,23.714,0,0,0,.117-6.4,50.926,50.926,0,0,0-1.129-5.746Z" transform="translate(-94 -102)" style="fill: #fff"/>
  <path d="M900.81,200.081c-.314-7.847,1.688-15.134,5.021-22.173,2.622-5.537,7.437-7.947,12.861-9.44,3.309-.911,7.577,1.163,9.206,4.815a36.43,36.43,0,0,1,3.351,11.207c1.653,18.107,2.875,36.253,4.362,54.376.22,2.673-.531,4.106-3.258,4.452-4.384.556-8.76,1.188-13.136,1.811a5.348,5.348,0,0,1-6-2.981c-2.933-6-6.344-11.881-8.3-18.2-2.376-7.685-3.455-15.77-5.1-23.682Z" transform="translate(-94 -102)" style="fill: #fff"/>
  <path d="M994.251,608.194c-6.31-.6-12.649-1-18.924-1.859-5.518-.76-6.386-1.573-6.859-6.978-1.231-14.055-2.254-28.131-3.175-42.211-.292-4.478.6-5.219,5.017-4.311,10.424,2.143,20.8,4.543,31.2,6.793,2.68.579,4.261,2.076,4.5,4.832q1.667,19.658,3.29,39.318c.2,2.487-1.116,3.924-3.546,4-3.822.124-7.651.033-11.478.033Z" transform="translate(-94 -102)" style="fill: #fff"/>
  <path d="M1079.225,536.938c-7.476-.025-14.111-2.968-20.33-6.54-11.452-6.577-22.479-14-31.061-24.13-6.54-7.721-11.974-16.377-17.883-24.629a3.27,3.27,0,0,1-.758-1.61c-.034-2.172-.732-5.086.377-6.3.979-1.071,4.473-1.032,6.1-.124,7.722,4.313,15.5,8.646,22.669,13.8,12.627,9.084,24.928,18.635,37.133,28.284,3.62,2.862,6.523,6.653,9.635,10.124,2,2.232,3.761,5.265,1.827,7.771-1.593,2.064-4.8,2.885-7.289,4.257Z" transform="translate(-94 -102)" style="fill: #fff"/>
  <path d="M885.3,356.041c-2.143-.409-4.4-.512-6.408-1.278-11.557-4.415-21.47-11.01-28.219-21.727a13.471,13.471,0,0,1-1.612-11.262c5.807-23,20.1-39.248,39.9-51.359,4.817-2.947,9.657-1.8,13.7.5,7.519,4.282,14.355,4.042,21.951.285,4.372-2.162,9.513-2.772,14.307-4.081l.442,1.091q-1.4.8-2.8,1.608a81.077,81.077,0,0,0-7.414,4.354c-1.121.813-2.488,2.588-2.27,3.615.278,1.306,1.865,2.676,3.22,3.331,2.02.976,4.358,1.27,6.511,2,3.735,1.265,7.488,2.509,11.114,4.045,1.193.505,2.669,1.77,2.863,2.887.342,1.973-.2,4.1-.372,6.162-1.612-.519-3.523-.654-4.777-1.631-3.177-2.476-5.838-5.637-9.1-7.973-10.148-7.265-21.4-9.776-33.634-6.68-6.379,1.616-13.089,2.7-18.922,5.526-9.874,4.781-16.7,12.27-16.9,25.323-.215,13.856,3.255,26.483,13.426,36.659,2.155,2.156,3.767,4.854,5.629,7.3Q885.617,355.392,885.3,356.041Z" transform="translate(-94 -102)" style="fill: #fff"/>
  <path d="M923.405,529.646c-7.748-.6-13.613-.92-19.447-1.535-5.139-.542-6.406-2.016-5.494-7.077,1.41-7.832,3.373-15.562,10.232-20.725,5.707-4.3,15.294-4.016,20.81.493a37.561,37.561,0,0,1,12.6,18.81c1.658,5.628,1.106,6.884-4.57,7.993C932.279,528.633,926.922,529.154,923.405,529.646Z" transform="translate(-94 -102)" style="fill: #fff"/>
  <path d="M916.734,532.232c3.573.234,7.151.419,10.719.717,2.705.225,3.659,1.728,3.2,4.423-1.674,9.764-11.369,14.154-19.417,8.288-3.019-2.2-5.369-5.678-7.211-9.02-1.632-2.958-.381-4.412,3.04-4.525,3.22-.107,6.446-.023,9.669-.023Z" transform="translate(-94 -102)" style="fill: #fff"/>
  <path d="M984.123,610.73c5.139.348,10.613.751,16.091,1.077,2.947.175,3.876,1.669,3.528,4.5-.726,5.907-6.874,10.5-12.941,9.584-6.876-1.041-10.931-5.377-13.532-11.439-.957-2.231-.079-3.478,2.227-3.7C980.914,610.62,982.355,610.73,984.123,610.73Z" transform="translate(-94 -102)" style="fill: #fff"/>
  <path d="M907.385,320.449c.3-7.132,4.667-12.158,11.044-12.442,3.874-.172,6.378,1.845,7.022,5.658.924,5.466-2.424,12.514-7.276,15.317-3.9,2.253-7.631,1.136-9.417-3.045A34.312,34.312,0,0,1,907.385,320.449Z" transform="translate(-94 -102)" style="fill: #fff"/>
  <path d="M1025.566,373.2c.626-6.089,2.215-10.09,6.127-12.851,2.434-1.718,5.043-2.956,8-1.361a7.538,7.538,0,0,1,3.918,7.546c-.356,4.805-2.135,9.273-6.673,11.579-2.112,1.073-5.5,1.981-7.167,1.006C1027.568,377.824,1026.494,374.615,1025.566,373.2Z" transform="translate(-94 -102)" style="fill: #fff"/>
  <path d="M1046.72,316a60.5,60.5,0,0,1,2.127,6.211c.146.607-.788,1.474-1.228,2.222-.7-.515-1.912-.949-2.009-1.559a60.059,60.059,0,0,1-.4-6.545Z" transform="translate(-94 -102)" style="fill: #fff"/>
  <path d="M1065.738,399.639q.186,2.158.37,4.319c-.712-.08-2.019-.083-2.041-.251a31.543,31.543,0,0,1-.094-4.013Z" transform="translate(-94 -102)" style="fill: #fff"/>
  <path d="M764.392,372.5a31.386,31.386,0,0,1-1.422,3.54c-7.714,14.135-17.3,26.67-30.359,36.409-16.744,12.491-35.671,19.2-56.164,22.2-19.862,2.9-39.749,2.147-59.5-.269a131.766,131.766,0,0,1-39.516-11.543,141.274,141.274,0,0,1-31.169-19.767A70.2,70.2,0,0,1,526.05,376.4a36.85,36.85,0,0,1-1.153-4.5c4.542,2.514,8.193,4.462,11.773,6.532,8.792,5.083,18.343,7.25,28.374,8.384,11.844,1.338,23.43,1.15,34.821-2.595,13.716-4.509,25.969-11.413,34.8-23.088,11.66-15.405,15.493-33.171,14.514-52.181-.043-.837-.137-1.674-.263-2.5-.488-3.2.358-4.985,4.119-4.793,4.394.224,7.321-2.353,8.678-6.269a38.17,38.17,0,0,0,1.688-9.15c.08-.925-1.224-1.97-1.893-2.96-.915.751-2.14,1.335-2.662,2.3a13.022,13.022,0,0,0-.812,3.842c-.975,5.443-3.53,7.2-8.911,5.668-5.759-1.639-11.464-3.49-17.129-5.434-7.026-2.41-13.992-5-20.972-7.545a28.061,28.061,0,0,1-3.01-1.673c2.062-.633,3.281-1.259,4.54-1.353,7.767-.574,15.538-1.128,23.318-1.477,3.46-.155,5.75-1.386,7.4-4.6,3.448-6.709,7.194-13.269,10.962-19.807a42.629,42.629,0,0,1,4.128-5.425c1.836-2.249,3.794-2.36,5.661-.042,7.206,8.944,14.61,17.741,21.468,26.943,2.756,3.7,5.594,5.421,10.188,5.134a82.081,82.081,0,0,1,11.471.571,34.611,34.611,0,0,1,4.66,1.156,29.742,29.742,0,0,1-3.72,2.425c-7.956,3.329-15.878,6.754-23.941,9.805-4.5,1.7-6.125.711-8.167-3.737-.25-.544-.325-1.259-.727-1.623a19.223,19.223,0,0,0-2.5-1.683c-.5.86-1.471,1.744-1.43,2.578.191,3.91,1.014,7.842,4.571,10.041,3.183,1.968,3.635,4.44,3.5,7.86-.687,17.523,2.131,34.3,13.135,48.557,16.7,21.638,42.343,27.81,66.556,17.381,1.467-.631,3.038-1.021,4.561-1.524Zm-96.8,20.159a11.242,11.242,0,0,0,8.8-4.693,28.022,28.022,0,0,0,5.449-16.052c.022-1.414-1.4-2.85-2.16-4.276-.993,1.264-2.422,2.387-2.886,3.822-.949,2.936-1.135,6.117-2.072,9.058-2.029,6.376-7.645,8.19-13.4,4.866-5.414-3.128-6.789-8.265-7.9-13.779-.22-1.1-1.67-1.942-2.553-2.9-.738,1.1-2.123,2.2-2.115,3.3C648.835,382.725,656.848,392.238,667.59,392.661Z" transform="translate(-94 -102)" style="fill: #fff"/>
  <path d="M606.373,289.16c-6.362.682-12.8.961-19.071,2.124-17.118,3.174-27.819,12.85-30.02,30.967-1.208,9.947,2.481,18.867,10.239,26.071,12.864,11.947,27.9,13.114,43.241,7.9,13.669-4.647,22.049-12.87,23.684-30.99.83-9.2-2.34-17.125-7.152-24.279-2.293-3.411-6.8-5.372-10.418-7.833a22.208,22.208,0,0,0-4.174-1.759l.193-1.007a15.259,15.259,0,0,1,3.02.454c6.175,2.22,12.221,4.865,18.508,6.686,5.526,1.6,7.755,4.5,8.22,10.391a76.557,76.557,0,0,1-6.866,38.784c-12.194,26.27-33.791,37.6-62.178,37.04-16.645-.327-31.642-5.069-44.981-15.57-9.677-7.617-12.728-17.521-11.953-28.808a92.3,92.3,0,0,1,14.587-44.613,12.043,12.043,0,0,1,8.627-5.854q14.9-2.123,29.821-4.076c4.974-.658,10.025-.885,14.931-1.863,5.688-1.134,10.571,1.265,15.665,2.772a52.3,52.3,0,0,1,6.548,2.916Z" transform="translate(-94 -102)" style="fill: #fff"/>
  <path d="M735.111,284.024c6.686,0,13.391-.279,20.049.158a9.687,9.687,0,0,1,6.286,3.376c10.315,13.407,15.342,28.675,16.109,45.611,1.031,22.769-14.582,37.506-35.9,39.821-16.583,1.8-31.457-2.747-42.37-16.284-2.33-2.891-3.362-6.793-5.461-9.914-4.49-6.674-6.114-14.359-7.345-21.95-1.118-6.889-.762-14.038-.737-21.072a4.954,4.954,0,0,1,2.461-3.622c10.965-5.022,21.913-10.126,33.134-14.524,4.2-1.647,9.1-1.5,13.687-2.171Zm23.858,37.706c.672-6.45-1.915-11.56-5.234-16.8-4.522-7.14-10.365-11.975-18.721-13.01-9.415-1.166-18.32.641-27.131,4.583-16.384,7.329-22.811,23.417-14.876,39.149,8.648,17.146,30.68,24.922,48.007,16.692C753.87,346.235,758.057,334.843,758.969,321.73Z" transform="translate(-94 -102)" style="fill: #fff"/>
  <path d="M604.533,587.022c-7.435-2.173-14.9-4.264-22.293-6.558a79.753,79.753,0,0,1-9.721-3.751c-4.086-1.883-4.646-3.2-2.937-7.363,4.462-10.858,9.129-21.633,13.623-32.479,1.695-4.092,3.162-8.28,4.692-12.439,1.077-2.93,2.909-4.022,6.129-3.368,9.035,1.834,18.146,3.3,27.171,5.182,7.173,1.5,8.334,3.6,6.518,10.651-.448,1.736-1.087,3.424-1.633,5.135q-5.508,17.265-11.012,34.531c-.328,1.028-.61,2.07-.966,3.087-2.2,6.282-2.519,6.5-9.308,6.462Z" transform="translate(-94 -102)" style="fill: #fff"/>
  <path d="M651.066,557.251c0-7.891.044-15.782-.019-23.673-.029-3.533,1.453-5.145,5.1-5.358,10.032-.585,20.053-1.375,30.067-2.207,3.149-.262,4.057,1.618,4.317,4.058,1.04,9.749,2.076,19.5,2.908,29.269.527,6.2.625,12.43,1.052,18.638.2,2.924-.872,4.96-3.6,5.881a72.129,72.129,0,0,1-36.829,2.316c-1.418-.265-3.4-2.687-3.462-4.177-.338-8.238-.162-16.5-.162-24.75Z" transform="translate(-94 -102)" style="fill: #fff"/>
  <path d="M651.664,521.194c-13.647-1.31-29.6-2.8-45.547-4.416a77.27,77.27,0,0,1-7.718-1.659c-2.413-.5-3.326-2.026-2.474-4.205,1.472-3.768,3.2-7.437,4.846-11.134.965-2.163,2.007-4.292,2.976-6.454,1.118-2.493,2.993-3.048,5.586-2.633,7.913,1.266,15.842,2.43,23.779,3.54a173.742,173.742,0,0,0,43.005.192c7.309-.8,8.8.291,9.366,7.464.32,4.045,1,8.06,1.414,12.1.28,2.738-.959,4.263-3.832,4.5C673.405,519.278,663.751,520.145,651.664,521.194Z" transform="translate(-94 -102)" style="fill: #fff"/>
  <path d="M715.37,497.478c-4.622-1.031-9.324-1.8-13.842-3.168-4.389-1.331-6.153-4.879-6.639-9.331-.462-4.241,1.785-6.6,4.91-8.824a89.434,89.434,0,0,0,10.9-8.665c3.592-3.52,3.832-8.057.813-12.093-2.561-3.422-5.743-6.377-8.578-9.6-.739-.84-1.912-2.492-1.676-2.779.832-1.012,2.257-2.312,3.334-2.209a64.7,64.7,0,0,1,11.943,2.048c12.476,3.634,23.734,9.359,32.944,18.91,7.261,7.529,7.452,15.967-.178,23.253C739.826,494.066,728.055,496.435,715.37,497.478Z" transform="translate(-94 -102)" style="fill: #fff"/>
  <path d="M605.583,444.757c-1.948,1.535-2.988,2.4-4.077,3.2-3.275,2.406-6.694,4.633-9.825,7.211-4.514,3.718-5.429,9-2.643,14.2,1.353,2.526,3,4.891,4.4,7.394,4.49,8.022,1.592,15.588-7.281,17.959-13.821,3.694-26.08-.542-36.949-8.884-5.527-4.242-4.231-10.761-2.455-16.322,4.265-13.359,13.988-21.283,27.165-25.274,3.086-.935,6.267-1.581,9.313-2.627C590.83,439.005,597.483,442.272,605.583,444.757Z" transform="translate(-94 -102)" style="fill: #fff"/>
  <path d="M681.19,454.612c.1,4.367-4.577,6.826-8.829,4.884-1.238-.565-2.93-.289-4.394-.162-1.511.131-3.006.844-4.493.8q-19.352-.588-38.7-1.385c-3.17-.126-5.019-3.018-4.8-6.974.2-3.755,2.914-3.2,5.237-3.086,8.236.411,16.468,1.3,24.7,1.291,8.108-.008,16.224-.767,24.319-1.422C680.248,448.069,681.051,448.614,681.19,454.612Z" transform="translate(-94 -102)" style="fill: #fff"/>
  <path d="M585.353,599.952c-9.066-.294-14.218-5.8-13.9-14.667.105-2.934,1.208-4.382,4.2-3.477,6.982,2.112,13.957,4.256,20.885,6.538,2.5.825,2.876,2.7,1.452,4.854C595.007,597.724,590.934,600.258,585.353,599.952Z" transform="translate(-94 -102)" style="fill: #fff"/>
  <path d="M598.994,311.775c5.957-.053,11.617,4.307,11.638,8.963.024,5.277-4.912,9.657-10.91,9.68s-11.1-4.107-11.129-8.994C588.556,316.087,593.149,311.826,598.994,311.775Z" transform="translate(-94 -102)" style="fill: #fff"/>
  <path d="M672.919,605.235a14.558,14.558,0,0,1-12.328-9.6c-.739-2.3-.1-3.933,2.388-4.133,6.322-.5,12.658-.947,19-1.07.964-.018,2.706,1.722,2.824,2.788C685.429,598.954,678.7,605.58,672.919,605.235Z" transform="translate(-94 -102)" style="fill: #fff"/>
  <path d="M688.805,460.189l3.948-7.789c2.716,1.439,5.669,2.562,8.1,4.383,4.625,3.47,3,6.736-.861,10.4-1.921,1.826-4.929,2.509-7.445,3.709-.779-2.25-1.608-4.485-2.317-6.757a33.065,33.065,0,0,1-.706-3.465Z" transform="translate(-94 -102)" style="fill: #fff"/>
  <path d="M599.359,474.925c-3.275-3.37-5.983-6.563-4.316-11.457,1.523-4.476,5.515-6.029,9.291-7.615,2.505-1.053,3.454.1,2.778,2.96-1.268,5.374-2.006,10.987-6.323,15.086A14.764,14.764,0,0,1,599.359,474.925Z" transform="translate(-94 -102)" style="fill: #fff"/>
  <path d="M373.192,406.608a39.146,39.146,0,0,1-2.2,3.875c-12.821,17.689-30.52,28.449-50.867,35.192-16.963,5.622-34.323,7.71-52.105,4.466-4.2-.767-4.568-1.218-3.722-5.434,1.419-7.076,2.638-14.164.467-21.328a4.677,4.677,0,0,1,2.106-5.846c4.354-2.969,6.7-7.466,8.083-12.386.317-1.128-.679-2.625-1.071-3.952a20.867,20.867,0,0,0-3.22,2.7c-.722.889-.877,2.214-1.463,3.243-4.2,7.383-6.912,7.93-13.337,2.592-3.054-2.538-6.894-4.265-7.769-8.958-.377-2.024-2.2-2.051-3.8-.275-.927,1.028-2.422,2.2-3.655,2.193-12.442-.074-21.924,5.981-30.428,14.22-1.031,1-1.972,2.272-3.218,2.814-1.126.49-3.138.727-3.848.078-2.76-2.52-5.158-5.437-8.313-8.886a27.34,27.34,0,0,1,3.976-1.07c27.96-2.007,44.462-27.091,42.591-51.068a74.626,74.626,0,0,0-7.717-26.767c-2.288-4.712-2.015-5.436,1.8-8.87,6.227-5.6,12.329-11.35,18.359-17.164,2.247-2.166,4.034-1.976,6.608-.389q14.2,8.751,28.71,16.988c2.354,1.342,2.682,2.661,1.606,4.9-3.806,7.914-6.78,16.088-7.9,24.874-1.684,13.166.539,25.671,8.813,36.024,4.584,5.736,10.967,10.34,17.246,14.348,10.184,6.5,21.68,10.114,33.822,9.025,8.756-.786,17.357-3.312,26.023-5.084,1.242-.254,2.458-.635,3.687-.957Z" transform="translate(-94 -102)" style="fill: #fff"/>
  <path d="M441.618,310.771c-.884,4.937-1.665,13.37-3.994,21.352-3.427,11.741-2.491,22.9,1.746,34.076,1.712,4.516,1.251,5.223-3.362,4.589-25.723-3.535-46.577-15.3-57.458-39.365-9.064-20.047-2.229-35.435,15.964-45.9a37.551,37.551,0,0,1,22.735-5.221C432.245,281.771,441.841,292.323,441.618,310.771Z" transform="translate(-94 -102)" style="fill: #fff"/>
  <path d="M348.487,328.848c-13.811.357-27.271-2.084-40.469-5.644-17.349-4.679-32.693-13.473-46.644-24.7-4-3.219-5.763-3.061-9.279.8-10.779,11.826-22.411,22.731-36.855,29.961-5.911,2.959-12.412,4.761-18.7,6.92-1.113.382-2.514-.074-3.783-.144.211-1.346.063-2.894.689-4.006a89.727,89.727,0,0,1,19.125-23.088c12.878-11.416,28.212-17.713,44.675-21a136.7,136.7,0,0,1,64.386,2.479c9.74,2.723,19.224,5.907,27.928,10.986a81.813,81.813,0,0,1,12.24,9.254c1.244,1.084,1.724,3.3,2.071,5.1.566,2.93.76,5.934,1.069,8.911.367,3.539-.392,4.266-3.873,4.2C356.872,328.786,352.679,328.848,348.487,328.848Z" transform="translate(-94 -102)" style="fill: #fff"/>
  <path d="M384.715,378.118c1.582,6.373-2.518,17.473-7.426,20.347-27.339,16.01-60.056,13.506-82.212-10.908a38.41,38.41,0,0,1-9.508-21.767c-1.481-13.264,2-25.619,8.416-37.233,1.4-2.53,3.267-3.272,5.95-2.6,8.693,2.179,17.411,4.262,26.083,6.518,4.256,1.107,4.906,2.013,3.321,6.118-8.882,23,11.389,49.819,40.44,45.088,3.824-.623,7.435-2.574,11.132-3.944C382.105,379.3,383.259,378.742,384.715,378.118Z" transform="translate(-94 -102)" style="fill: #fff"/>
  <path d="M157.546,301.158c12.307,1.024,20.91,6.065,27.521,14.685,2.175,2.836.342,5.305-1.019,7.609a90.726,90.726,0,0,0-10.3,25.158c-1.546,6.493-2.24,13.186-3.378,19.778-.24,1.389-.392,3.025-1.211,4.043-6.272,7.792-13.835,13.827-23.744,16.356-2.052.525-4.133.491-3.347-2.654,2.306-9.222-1.426-17.427-4.2-25.813-2.589-7.819-5.548-15.553-7.531-23.527-3.416-13.735,4.487-28.088,17.765-33.036A94.817,94.817,0,0,1,157.546,301.158Z" transform="translate(-94 -102)" style="fill: #fff"/>
  <path d="M203.4,452.876c.284-7.42,3.049-13.646,7.31-19.349,2.707-3.623,5.072-7.574,8.188-10.8,3.984-4.126,8.62-7.526,14.449-8.918,11.122-2.657,21.093,4.22,21.736,15.658.928,16.525-5.96,29.65-18.756,39.8a40.028,40.028,0,0,1-7.893,4.9,16.5,16.5,0,0,1-22.469-9.829C204.773,460.623,204.234,456.7,203.4,452.876Z" transform="translate(-94 -102)" style="fill: #fff"/>
  <path d="M276.608,547.572c0,5.859-.08,11.72.033,17.577.058,3.035-.9,5-4.066,5.766a51.459,51.459,0,0,1-26.232-.111c-1.3-.362-3.058-2.42-3.036-3.666.23-12.781.73-25.56,1.293-38.333.107-2.442,1.613-3.85,4.3-3.8q12.017.241,24.037.343c2.936.027,3.9,1.409,3.812,4.291-.178,5.972-.054,11.953-.054,17.93Z" transform="translate(-94 -102)" style="fill: #fff"/>
  <path d="M329.6,546.493c-7.988-.569-15.741-2.626-21.739-8.511-4.163-4.085-7.7-8.817-11.436-13.323-1.811-2.183-1.289-3.964,1.318-5.079,7.145-3.056,14.063-7.127,21.521-8.821,6.122-1.391,12.893-.033,19.364.325,1.007.056,2.083,1.149,2.9,1.985a34.86,34.86,0,0,1,9.59,20.044,6.784,6.784,0,0,1-2.98,6.83A32.608,32.608,0,0,1,329.6,546.493Z" transform="translate(-94 -102)" style="fill: #fff"/>
  <path d="M260.079,519.03c-2.855-.172-5.958-.367-9.062-.542-2.8-.158-4.245-1.586-3.865-4.41.589-4.382,1.226-8.763,2.037-13.108.544-2.911,2.37-4.23,5.47-3.709,16.95,2.849,33.628.791,50.184-2.971,2.5-.568,4.014.077,5.305,2.307,4.74,8.187,4.63,8.293-3.929,12.517C291.727,516.266,276.317,518.87,260.079,519.03Z" transform="translate(-94 -102)" style="fill: #fff"/>
  <path d="M188.022,346.561c.1,1.47.126,2.949.308,4.409.593,4.732.668,9.623,1.976,14.155,4.027,13.953,17.756,21.438,31.89,17.825,2.986-.764,5.955-1.594,10.1-2.707a50.8,50.8,0,0,1-2.483,6.193c-7.607,13.1-18.97,19.491-34.186,18.96a8.981,8.981,0,0,1-8.655-5.789c-7.074-15.818-7.6-31.941-2.454-48.34a29.113,29.113,0,0,1,2.594-4.867Z" transform="translate(-94 -102)" style="fill: #fff"/>
  <path d="M323.86,457.851c5.471.465,7.86,4.307,10.2,7.792,4.227,6.286,1.037,14.176-6.661,17.248-.663.264-1.4.357-2.049.641-8.22,3.578-9.579,2.083-10.484-6.961-.356-3.558-.393-7.146-.7-10.71-.29-3.358.886-5.475,4.357-6.243A48.7,48.7,0,0,0,323.86,457.851Z" transform="translate(-94 -102)" style="fill: #fff"/>
  <path d="M367.418,355.963a12.412,12.412,0,0,1-11.666-7.772,10.875,10.875,0,0,1,3.394-12c3.908-3.42,8.52-2.633,11.066,1.864,1.3,2.291,2.627,4.565,3.972,6.829,3.034,5.107,1.332,9.213-4.482,10.7A20.827,20.827,0,0,1,367.418,355.963Z" transform="translate(-94 -102)" style="fill: #fff"/>
  <path d="M229.282,360.289c-5.32-.708-9-3.63-10.3-8.536-1.768-6.645,2.058-13.557,7.937-14.16a7.76,7.76,0,0,1,3.843.5c4.356,1.983,7.613,14.664,4.5,18.3C233.775,358.125,231.306,359.016,229.282,360.289Z" transform="translate(-94 -102)" style="fill: #fff"/>
  <path d="M302.5,465.233a23.592,23.592,0,0,1-4.424,2.345c-12.275,3.511-24.665,2.572-37.013.5-1.107-.186-1.924-2.1-2.876-3.21,1.237-1.03,2.469-2.921,3.711-2.928,3.682-.019,7.361.981,11.054,1.081,7.894.214,15.8.088,23.7.16,1.825.017,3.648.269,5.472.413Q302.308,464.413,302.5,465.233Z" transform="translate(-94 -102)" style="fill: #fff"/>
  <path d="M259.341,576.063c2.155,0,4.312-.053,6.465.015,2,.062,3.11,1,2.9,3.181a10.271,10.271,0,0,1-8.9,8.58,9.521,9.521,0,0,1-9.717-6.952c-.912-3.4.015-4.712,3.513-4.829,1.913-.065,3.831-.012,5.746-.012Z" transform="translate(-94 -102)" style="fill: #fff"/>
  <path d="M354.851,516.09c3.058.006,6.691,3.031,7.19,5.986.364,2.162-2.8,7.577-5.019,8.038a3.16,3.16,0,0,1-2.591-1.477,60.287,60.287,0,0,1-3.115-7.959C350.408,517.832,351.854,516.084,354.851,516.09Z" transform="translate(-94 -102)" style="fill: #fff"/>
  <path d="M932.043,400.371c-9.182-.112-14.942-5.1-14.865-12.44.057-5.4,1.318-10.829,2.51-16.14.257-1.145,2.521-1.84,3.86-2.742.357,1.462,1.172,2.985.986,4.374-.551,4.112-1.847,8.143-2.183,12.261-.293,3.589.923,6.937,4.8,8.386,3.356,1.253,7.208.067,9.782-3.336,2.442-3.228,4.539-6.718,6.776-10.1.971-1.467,1.742-3.576,4.044-2.3,2.044,1.133,2.2,3.172,1,4.981-3.025,4.54-5.827,9.331-9.506,13.291C937.164,398.844,933.528,399.64,932.043,400.371Z" transform="translate(-94 -102)"/>
  <path d="M667.59,392.661c-10.742-.423-18.755-9.936-18.831-20.658-.008-1.095,1.377-2.2,2.115-3.3.883.961,2.333,1.808,2.553,2.9,1.111,5.514,2.486,10.651,7.9,13.779,5.753,3.324,11.369,1.51,13.4-4.866.937-2.941,1.123-6.122,2.072-9.058.464-1.435,1.893-2.558,2.886-3.822.758,1.426,2.182,2.862,2.16,4.276a28.022,28.022,0,0,1-5.449,16.052A11.242,11.242,0,0,1,667.59,392.661Z" transform="translate(-94 -102)"/>
  <path d="M758.969,321.73c-.912,13.113-5.1,24.5-17.955,30.613-17.327,8.23-39.359.454-48.007-16.692-7.935-15.732-1.508-31.82,14.876-39.149,8.811-3.942,17.716-5.749,27.131-4.583,8.356,1.035,14.2,5.87,18.721,13.01C757.054,310.17,759.641,315.28,758.969,321.73Zm-36.243-10.917c-5.129.676-9,3.541-9.312,7.357-.369,4.521,4.064,8.971,9.984,10.023,4.577.814,8.778-1.18,9.194-5.188.268-2.572-.44-5.955-2.049-7.825C728.715,313.056,725.4,312.213,722.726,310.813Z" transform="translate(-94 -102)"/>
  <path d="M722.726,310.813c2.67,1.4,5.989,2.243,7.817,4.367,1.609,1.87,2.317,5.253,2.049,7.825-.416,4.008-4.617,6-9.194,5.188-5.92-1.052-10.353-5.5-9.984-10.023C713.726,314.354,717.6,311.489,722.726,310.813Z" transform="translate(-94 -102)" style="fill: #fff"/>
</g>
</svg>
