<svg id="Layer_1" data-name="Layer 1" xmlns="http://www.w3.org/2000/svg" width="777" height="643.5" viewBox="0 0 777 643.5">
  <title>sp</title>
  <g>
    <g id="Shapes">
    <path d="M58.5,74.25h777v643.5H58.5Zm589.358,311c7.018-2.114,13.66-3.792,20.061-6.129a19.469,19.469,0,0,0,12.751-14.64c.924-4.184.722-8.641.791-12.979.035-2.141.788-3.227,2.716-4.279,18.5-10.1,37.024-20.18,55.294-30.69,4.235-2.437,7.753-3.661,12.356-1.484,7.336,3.47,14.17,2.953,21.023-2.138,5.961-4.429,9.4-3.874,15.13.945,4.1,3.451,7.717,7.474,11.81,10.933,4.747,4.011,11.675,3.023,15.971-1.935,2.9-3.35,2.4-9.8-1.775-13.524a61.746,61.746,0,0,0-11.384-7.738c-4.244-2.334-8.863-3.979-13.26-6.047-1.907-.9-4.417-2.144-3.188-4.59a6.663,6.663,0,0,1,4.952-2.862c5.851-.194,11.731.064,17.581.432,6.161.388,8.814-.849,10.507-5.488,2.181-5.973.633-12.229-3.691-15.154-9.3-6.291-18.81-5.4-28.471-.956a26.433,26.433,0,0,1-5.571,2.114c-2.855.584-4.437-1.281-3.371-3.945a9.3,9.3,0,0,1,2.686-3.412c4.016-3.374,8.177-6.574,12.221-9.914,3.771-3.115,5.3-9.126,3.489-13.273-1.528-3.5-4.964-4.772-10.66-4.1-9.647,1.136-16.144,6.7-20.886,14.741-2.849,4.831-5.356,9.894-8.539,14.491-2.83,4.088-7.527,3.421-9.336-1.217-1.016-2.606-1.163-5.568-1.569-8.388-.611-4.256-1.21-8.619-5.308-11.021a20.961,20.961,0,0,0-18.417-1.546c-5.057,1.832-7.625,5.893-8.584,10.964-.929,4.911,2.441,7.6,5.839,10.024,2.428,1.734,5.242,2.933,7.636,4.7,2.556,1.892,4.307,4.453,2.394,7.738-4.2,7.207-5.075,14.485-.567,22.112l-54.631,32.845c-6.242-8.856-13.589-13.742-25.08-8.875,1.053-4.161,2.024-7.479,2.719-10.855,1.351-6.573,1.632-13.071-1.646-19.3-2.937-5.58-5.306-11.336-4.169-17.887,1.088-6.267,2.1-12.55,3.27-18.8,1.574-8.389,1.575-16.425-2.355-24.443-4.019-8.2-7.1-16.91-6.283-26.291.417-4.81,1.734-9.538,2.575-14.316,2.556-14.515,1.241-28.19-7.448-40.818-2.305-3.352-3.427-8.121-3.513-12.272-.18-8.715.843-17.448,1.09-26.181.369-13.1-8.8-22.34-22.028-22.744-6.694-.2-12.488,2.206-17.929,5.629a18.344,18.344,0,0,1-14.723,2.233c-3.76-.9-7.555-1.666-11.281-2.687-8.253-2.26-16.032-1.58-23.317,3.2a73.253,73.253,0,0,1-10.257,6.172c-3.1,1.369-6.665,2.532-9.975,2.412-8.589-.312-17.136-1.671-25.725-2.07-9.953-.463-19.5.91-28.49,6.084-12.5,7.2-26.042,8.881-40.18,5.527a53.254,53.254,0,0,0-10.7-1.56,51.45,51.45,0,0,0-25.7,5.667c-12.039,6.324-24.256,6.791-36.844,2.065-.93-.349-1.912-.567-2.876-.822-8.989-2.381-17.992-3.251-26.777.639-4.317,1.912-8.463,4.236-12.6,6.534-4.314,2.4-8.533,4.454-13.79,3.215-10.527-2.482-20.555.7-30.464,3.568a16.28,16.28,0,0,0-8.166,5.516c-3.635,4.991-7.19,10.361-9.212,16.124-2.66,7.581-7.784,11.1-14.952,13.087a22.952,22.952,0,0,0-7.239,3.644c-4.558,3.347-7.308,8.043-9.182,13.368-1.822,5.176-2.828,10.766-8.935,13.41-9.281,4.019-10.028,13.325-7.862,20.919,2.377,8.337,8.149,13.884,14.539,18.951,7.016,5.565,11.249,12.326,11.567,21.546.4,11.508,4.551,21.3,13.967,28.595,6.509,5.04,8.79,11.907,8.49,20.161-.347,9.538,2.925,17.968,9.232,25.387a101.637,101.637,0,0,1,10.306,15.084c1.428,2.473,1.526,5.713,2.417,9.394-6.88-1.114-12.718-2.171-17.827,1.334-4.772,3.273-9.262,6.959-14.4,10.864.614.166.227.132-.09-.034a375.385,375.385,0,0,0-57.967-24.511c-5.479-1.786-8.978-5.072-10.66-10.418-2.252-7.161-6.882-11.866-13.913-14.543-4.4-1.675-4.688-4.606-1.037-7.782,2.16-1.878,4.449-3.619,6.77-5.3,4.2-3.036,4.828-7.025,3.174-11.585-1.538-4.241-4.914-6.212-9.184-6.518a43.571,43.571,0,0,0-9.7.144,21.407,21.407,0,0,0-14.119,8.414c-2.985,3.925-.95,7.71.4,11.64,1.219,3.549-.958,6.115-4.788,6.133a16.073,16.073,0,0,1-10.958-3.989c-5.949-5.095-11.858-10.318-19.513-12.867A13.86,13.86,0,0,0,84.7,304.205c-5.294,7.453-2.279,15.433,6.606,17.524,2.42.569,4.849,1.115,7.229,1.824,4.384,1.306,7.167,4.466,7.227,8.034.078,4.622-3.576,5.929-6.849,6.616a97.794,97.794,0,0,1-14.8,1.571c-5.933.32-11.2,3.552-12.322,8.534-1.163,5.161-.951,10.347,3.34,14.209,3.718,3.347,10.695,3.482,15.545.881,4.817-2.583,9.669-5.11,14.59-7.485,2.282-1.1,4.894-.6,5.723,1.724.421,1.18-1,3.7-2.293,4.685-5.041,3.845-10.356,7.329-15.583,10.928a9.623,9.623,0,0,0-2.394,12.979c3.18,4.888,9.325,6.923,13.371,4.128a40.28,40.28,0,0,0,8.268-6.923c5.259-6.328,11.24-8.761,19.8-8.109,11.772.9,23.464-1.116,33.144-8.929a5.313,5.313,0,0,1,5.67-.93q31.888,10.406,63.8,20.734c2.327.749,3.2,1.714,3.325,4.335.373,7.924,1.736,15.661,7.871,21.514,6.986,6.666,15.923,8.964,24.987,10.882,7.506,1.589,15.035,3.068,22.206,4.525.3.632.4.743.4.855-.007,1.371.035,2.746-.055,4.112-.582,8.844,1.226,16.652,9.182,21.951a3.492,3.492,0,0,1,1.02,2.271c1.558,11.733,3.048,23.475,4.575,35.212,1.252,9.623,2.531,19.242,3.674,27.915l64.563,19.973c-.785,6.267-1.732,11.912-2.064,17.593a7.067,7.067,0,0,0,2.315,5.4,122.1,122.1,0,0,0,14.4,8.465c1.981,1.007,2.786,1.933,2.661,4.135q-.958,16.823-1.7,33.657c-.615,13.726-1.008,27.442,1.39,41.085.2,1.169-.927,2.788-1.815,3.895-2.854,3.552-6.818,6.54-8.624,10.528-2.556,5.642-4.038,12.231.534,17.714a9.726,9.726,0,0,1,2.468,6.893c.008,6.354,2.232,9.316,8.3,11.253a59.706,59.706,0,0,0,9.715,2.706c3.878.54,8.711,1.815,11.6.136,4.577-2.661,7.5-1.823,10.953,1a22.211,22.211,0,0,0,3.421,2.29c11.8,6.427,23.832,8.068,35.934,1,8.72-5.091,13.107-14.7,11-23.083-2.35-9.342-10.055-15.842-20.507-16.091-5.7-.136-11.433,1.3-17.508,2.074-4.409-7.455-10.113-14.4-19.4-16.722-4.222-26.669-2.294-53.147-2.326-78.963,6.714-2.488,13.125-4.543,19.263-7.221,7.517-3.279,12.122-8.9,11.149-17.6-.672-6.006-1.871-11.953-2.89-18.275l77.989-12.371c0,4.455-.127,8.654.037,12.841.157,4.006,1.368,7.854,4.8,10.142,4.862,3.241,9.766,6.814,15.19,8.7,4.639,1.61,4.842,3.916,4.6,7.854-.878,13.949-1.642,27.912-2.063,41.881-.238,7.852.236,15.729.486,23.591.079,2.481-.327,4.226-2.659,5.923-6.2,4.508-9.487,16.979-5.386,22.656,2.988,4.136,3.093,8.2,2.937,12.615-.118,3.359,1.394,5.128,4.506,5.84,5.952,1.361,11.928,2.632,17.845,4.131,5.3,1.343,9.91,1.167,12.274-4.594,3.755,2.375,7.131,4.759,10.73,6.738,13.272,7.3,24.182,6.636,34.362-1.906q12.933-10.851,10.968-27.615c-1.594-13.583-17.263-21.485-30.588-15.086-4.842,2.325-9.154,5.754-12.856,8.133-5.193-4.167-10.486-8.213-15.5-12.577a7.558,7.558,0,0,1-2.414-4.909c-.222-8.618-.143-17.247-.04-25.87.176-14.863.473-29.724.654-44.586a5.07,5.07,0,0,1,2.949-5.011,116.411,116.411,0,0,0,15.109-9.638c7.463-5.879,8.252-7.269,5.664-17.755-.943-3.821-2.692-7.443-4.168-11.409,1.362-.3,2.551-.65,3.765-.827,14.195-2.07,28.382-4.209,42.6-6.107,3.9-.52,5.395-2.517,5.411-6.147,0-.873.069-1.745.1-2.618.565-17.578,1.076-35.157,1.722-52.732.212-5.752-1.78-11.876,2.117-17.1,2.8-3.744,2.983-7.7,2.085-12.03C646.131,402.734,643.962,393.668,647.858,385.25Z" transform="translate(-58.5 -74.25)" style="fill: #fff"/>
    <path d="M647.858,385.25c-3.9,8.418-1.727,17.484.15,26.528.9,4.325.712,8.286-2.085,12.03-3.9,5.22-1.9,11.344-2.117,17.1-.646,17.575-1.157,35.154-1.722,52.732-.028.873-.094,1.745-.1,2.618-.016,3.63-1.512,5.627-5.411,6.147-14.219,1.9-28.406,4.037-42.6,6.107-1.214.177-2.4.523-3.765.827,1.476,3.966,3.225,7.588,4.168,11.409,2.588,10.486,1.8,11.876-5.664,17.755a116.411,116.411,0,0,1-15.109,9.638,5.07,5.07,0,0,0-2.949,5.011c-.181,14.862-.478,29.723-.654,44.586-.1,8.623-.182,17.252.04,25.87a7.558,7.558,0,0,0,2.414,4.909c5.016,4.364,10.309,8.41,15.5,12.577,3.7-2.379,8.014-5.808,12.856-8.133,13.325-6.4,28.994,1.5,30.588,15.086q1.966,16.762-10.968,27.615c-10.18,8.542-21.09,9.207-34.362,1.906-3.6-1.979-6.975-4.363-10.73-6.738-2.364,5.761-6.97,5.937-12.274,4.594-5.917-1.5-11.893-2.77-17.845-4.131-3.112-.712-4.624-2.481-4.506-5.84.156-4.413.051-8.479-2.937-12.615-4.1-5.677-.81-18.148,5.386-22.656,2.332-1.7,2.738-3.442,2.659-5.923-.25-7.862-.724-15.739-.486-23.591.421-13.969,1.185-27.932,2.063-41.881.247-3.938.044-6.244-4.6-7.854-5.424-1.882-10.328-5.455-15.19-8.7-3.433-2.288-4.644-6.136-4.8-10.142-.164-4.187-.037-8.386-.037-12.841L444.79,531.621c1.019,6.322,2.218,12.269,2.89,18.275.973,8.7-3.632,14.318-11.149,17.6-6.138,2.678-12.549,4.733-19.263,7.221.032,25.816-1.9,52.294,2.326,78.963,9.286,2.326,14.99,9.267,19.4,16.722,6.075-.773,11.81-2.21,17.508-2.074,10.452.249,18.157,6.749,20.507,16.091,2.108,8.38-2.279,17.992-11,23.083-12.1,7.066-24.132,5.425-35.934-1a22.211,22.211,0,0,1-3.421-2.29c-3.449-2.822-6.376-3.66-10.953-1-2.887,1.679-7.72.4-11.6-.136a59.706,59.706,0,0,1-9.715-2.706c-6.065-1.937-8.289-4.9-8.3-11.253a9.726,9.726,0,0,0-2.468-6.893c-4.572-5.483-3.09-12.072-.534-17.714,1.806-3.988,5.77-6.976,8.624-10.528.888-1.107,2.02-2.726,1.815-3.895-2.4-13.643-2-27.359-1.39-41.085q.753-16.833,1.7-33.657c.125-2.2-.68-3.128-2.661-4.135a122.1,122.1,0,0,1-14.4-8.465,7.067,7.067,0,0,1-2.315-5.4c.332-5.681,1.279-11.326,2.064-17.593l-64.563-19.973c-1.143-8.673-2.422-18.292-3.674-27.915-1.527-11.737-3.017-23.479-4.575-35.212a3.492,3.492,0,0,0-1.02-2.271c-7.956-5.3-9.764-13.107-9.182-21.951.09-1.366.048-2.741.055-4.112,0-.112-.1-.223-.4-.855-7.171-1.457-14.7-2.936-22.206-4.525-9.064-1.918-18-4.216-24.987-10.882-6.135-5.853-7.5-13.59-7.871-21.514-.123-2.621-1-3.586-3.325-4.335q-31.933-10.269-63.8-20.734a5.313,5.313,0,0,0-5.67.93c-9.68,7.813-21.372,9.826-33.144,8.929-8.556-.652-14.537,1.781-19.8,8.109a40.28,40.28,0,0,1-8.268,6.923c-4.046,2.795-10.191.76-13.371-4.128a9.623,9.623,0,0,1,2.394-12.979c5.227-3.6,10.542-7.083,15.583-10.928,1.294-.987,2.714-3.5,2.293-4.685-.829-2.326-3.441-2.826-5.723-1.724-4.921,2.375-9.773,4.9-14.59,7.485-4.85,2.6-11.827,2.466-15.545-.881-4.291-3.862-4.5-9.048-3.34-14.209,1.123-4.982,6.389-8.214,12.322-8.534a97.794,97.794,0,0,0,14.8-1.571c3.273-.687,6.927-1.994,6.849-6.616-.06-3.568-2.843-6.728-7.227-8.034-2.38-.709-4.809-1.255-7.229-1.824-8.885-2.091-11.9-10.071-6.606-17.524a13.86,13.86,0,0,1,15.821-5.163c7.655,2.549,13.564,7.772,19.513,12.867A16.073,16.073,0,0,0,130.99,315.9c3.83-.018,6.007-2.584,4.788-6.133-1.349-3.93-3.384-7.715-.4-11.64a21.407,21.407,0,0,1,14.119-8.414,43.571,43.571,0,0,1,9.7-.144c4.27.306,7.646,2.277,9.184,6.518,1.654,4.56,1.023,8.549-3.174,11.585-2.321,1.679-4.61,3.42-6.77,5.3-3.651,3.176-3.363,6.107,1.037,7.782,7.031,2.677,11.661,7.382,13.913,14.543,1.682,5.346,5.181,8.632,10.66,10.418a375.385,375.385,0,0,1,57.967,24.511c.317.166.7.2.09.034,5.143-3.9,9.633-7.591,14.4-10.864,5.109-3.5,10.947-2.448,17.827-1.334-.891-3.681-.989-6.921-2.417-9.394a101.637,101.637,0,0,0-10.306-15.084c-6.307-7.419-9.579-15.849-9.232-25.387.3-8.254-1.981-15.121-8.49-20.161-9.416-7.292-13.57-17.087-13.967-28.595-.318-9.22-4.551-15.981-11.567-21.546-6.39-5.067-12.162-10.614-14.539-18.951-2.166-7.594-1.419-16.9,7.862-20.919,6.107-2.644,7.113-8.234,8.935-13.41,1.874-5.325,4.624-10.021,9.182-13.368a22.952,22.952,0,0,1,7.239-3.644c7.168-1.985,12.292-5.506,14.952-13.087,2.022-5.763,5.577-11.133,9.212-16.124a16.28,16.28,0,0,1,8.166-5.516c9.909-2.863,19.937-6.05,30.464-3.568,5.257,1.239,9.476-.816,13.79-3.215,4.134-2.3,8.28-4.622,12.6-6.534,8.785-3.89,17.788-3.02,26.777-.639.964.255,1.946.473,2.876.822,12.588,4.726,24.8,4.259,36.844-2.065a51.45,51.45,0,0,1,25.7-5.667,53.254,53.254,0,0,1,10.7,1.56c14.138,3.354,27.675,1.675,40.18-5.527,8.987-5.174,18.537-6.547,28.49-6.084,8.589.4,17.136,1.758,25.725,2.07,3.31.12,6.875-1.043,9.975-2.412a73.253,73.253,0,0,0,10.257-6.172c7.285-4.785,15.064-5.465,23.317-3.2,3.726,1.021,7.521,1.789,11.281,2.687a18.344,18.344,0,0,0,14.723-2.233c5.441-3.423,11.235-5.833,17.929-5.629,13.228.4,22.4,9.642,22.028,22.744-.247,8.733-1.27,17.466-1.09,26.181.086,4.151,1.208,8.92,3.513,12.272,8.689,12.628,10,26.3,7.448,40.818-.841,4.778-2.158,9.506-2.575,14.316-.815,9.381,2.264,18.094,6.283,26.291,3.93,8.018,3.929,16.054,2.355,24.443-1.173,6.251-2.182,12.534-3.27,18.8-1.137,6.551,1.232,12.307,4.169,17.887,3.278,6.229,3,12.727,1.646,19.3-.695,3.376-1.666,6.694-2.719,10.855,11.491-4.867,18.838.019,25.08,8.875L728.489,297c-4.508-7.627-3.629-14.905.567-22.112,1.913-3.285.162-5.846-2.394-7.738-2.394-1.772-5.208-2.971-7.636-4.7-3.4-2.426-6.768-5.113-5.839-10.024.959-5.071,3.527-9.132,8.584-10.964A20.961,20.961,0,0,1,740.188,243c4.1,2.4,4.7,6.765,5.308,11.021.406,2.82.553,5.782,1.569,8.388,1.809,4.638,6.506,5.305,9.336,1.217,3.183-4.6,5.69-9.66,8.539-14.491,4.742-8.043,11.239-13.6,20.886-14.741,5.7-.671,9.132.6,10.66,4.1,1.811,4.147.282,10.158-3.489,13.273-4.044,3.34-8.2,6.54-12.221,9.914a9.3,9.3,0,0,0-2.686,3.412c-1.066,2.664.516,4.529,3.371,3.945a26.433,26.433,0,0,0,5.571-2.114c9.661-4.444,19.172-5.335,28.471.956,4.324,2.925,5.872,9.181,3.691,15.154-1.693,4.639-4.346,5.876-10.507,5.488-5.85-.368-11.73-.626-17.581-.432a6.663,6.663,0,0,0-4.952,2.862c-1.229,2.446,1.281,3.693,3.188,4.59,4.4,2.068,9.016,3.713,13.26,6.047a61.746,61.746,0,0,1,11.384,7.738c4.177,3.722,4.678,10.174,1.775,13.524-4.3,4.958-11.224,5.946-15.971,1.935-4.093-3.459-7.71-7.482-11.81-10.933-5.725-4.819-9.169-5.374-15.13-.945-6.853,5.091-13.687,5.608-21.023,2.138-4.6-2.177-8.121-.953-12.356,1.484-18.27,10.51-36.792,20.587-55.294,30.69-1.928,1.052-2.681,2.138-2.716,4.279-.069,4.338.133,8.8-.791,12.979a19.469,19.469,0,0,1-12.751,14.64C661.518,381.458,654.876,383.136,647.858,385.25ZM366.593,435.1c0,4.624-.268,9.266.053,13.867.788,11.33,8.657,19.208,19.782,11.33,8.277-5.861,18.7-7.21,28.77-4.782,12.518,3.018,24.438,3.4,36.388-2.544a55.068,55.068,0,0,1,23.513-5.357c10.322-.244,20.631-1.587,30.914-2.743a33.692,33.692,0,0,0,10.483-2.627c12.437-5.862,25.339-4.685,38.255-2.976,11.628,1.538,22.292-.475,32.2-6.9a19.2,19.2,0,0,1,8.276-3.1c8.809-.821,17.666-1.166,26.511-1.553,6.59-.288,12.867-1.533,18.546-5.072,1.988-1.239,2.873-2.678,2.263-5.276-3.5-14.931-3.92-29.723.92-44.631a33.376,33.376,0,0,0-.362-22.5c-4.592-11.756-4.453-23.449-.427-35.131,3.515-10.2,2.526-20.092-.649-30.081-2.747-8.645-4.085-17.253-1.536-26.419,3.164-11.377,3.2-23.01-1.016-34.243a75.845,75.845,0,0,1-4.05-37.9,52.255,52.255,0,0,0-4.536-30.65c-1.575-3.259-3.365-6.441-4.618-9.821-1.284-3.463-2.605-7.08-2.891-10.711-.6-7.582-.3-15.233-.823-22.824a44.029,44.029,0,0,0-2.444-11.628,10.679,10.679,0,0,0-12.724-6.79c-4.547,1.169-8.807,3.411-13.309,4.811-3.258,1.013-6.741,2.124-10.055,1.943a74.123,74.123,0,0,1-14.693-2.623,20.75,20.75,0,0,0-14.558,1.213c-5.553,2.559-11.073,5.231-16.776,7.411a27.226,27.226,0,0,1-9.091,1.624,86.715,86.715,0,0,1-10.8-1c-13.381-1.45-26.614-2.207-39.029,4.774-13.616,7.657-28.267,8.289-43.279,5.628-12.695-2.251-24.85-1.083-36.219,5.475-1.615.931-3.4,1.558-5.105,2.34-6.532,3-13.254,4.163-20.409,2.591-8.032-1.765-16.108-3.333-24.177-4.921-8.3-1.633-15.914-1.312-23.55,3.778-8.925,5.948-19.2,7.858-30.126,5.821-7.972-1.486-15.952-1.287-23.1,3.552-3.169,2.147-5.162,4.773-3.864,8.813,2.861,8.9,5.59,17.721,12.806,24.529,6.288,5.932,11.6,12.8,12.967,21.822.581,3.82,1.461,7.616,1.747,11.456a42.854,42.854,0,0,0,11.383,26.256,61.684,61.684,0,0,1,7.073,10.095,16.481,16.481,0,0,1,1.889,6.351c.457,3.959.308,7.989.773,11.948,1.221,10.383,3.445,20.386,10.515,28.717,4.9,5.77,7.281,12.77,8.121,20.211.727,6.439.838,12.95,1.643,19.376.55,4.4,1.124,9.018,2.92,12.979,3.754,8.281,8.354,16.177,12.53,24.27a12.748,12.748,0,0,1,1.724,4.833c.386,7.094,1.279,14.289.5,21.281-.806,7.2.59,13.57,4.472,19.177A36.231,36.231,0,0,1,366.593,435.1Zm-102.9-290.577c-1.173,2.706-2.738,5.315-3.44,8.138-1.683,6.774-5.846,11.122-12.1,13.781-2.3.976-4.454,2.486-6.838,3.008-7.21,1.581-10.394,6.73-11.5,13.188-1.762,10.276-6.661,17.172-17.392,19.313a6.793,6.793,0,0,0-5.6,6.294c-.465,4.544.332,8.836,3.459,12.246a56.149,56.149,0,0,0,8.754,8.091c8.519,6.006,14.232,13.517,14.876,24.289.537,8.984,3.035,17.074,10.641,22.827a27.207,27.207,0,0,1,3.829,4.106c4.535,5.247,7.619,11.029,7.37,18.277a47.187,47.187,0,0,0,.764,9.321c.981,5.88,2.056,11.426,7.434,15.662,9.415,7.416,13.567,17.887,12.954,29.692-.229,4.4,1.188,6.183,4.567,7.983,17.489,9.32,31.851,22.361,43.781,38.036,9.023,11.855,4.456,24.932-9.964,28.7-4.009,1.048-8.4.759-12.626.794-2.108.017-3.07.712-3.739,2.7-3.224,9.58,2.028,18.793,12.105,19.518a36.9,36.9,0,0,1,16.821,5.426c4.273,2.554,8.593,3.084,13.441.463,5.5-2.975,11.171-2.667,16.544,1.274,3.206,2.353,6.9,4.042,10.374,6.029l.617-.73c-6.069-6.435-5.3-14.141-4.555-21.957.946-9.994,1.438-19.923-4.836-28.835a85.564,85.564,0,0,1-6.521-11.788,20.7,20.7,0,0,1-2.22-12.682c1.766-10.868.721-21.434-4.323-31.355-7.4-14.551-14.391-29.175-12.414-46.239a12.3,12.3,0,0,0-.111-4.109,27.816,27.816,0,0,0-2.192-7.011c-3.277-6.033-7.192-11.734-10.236-17.873a85.79,85.79,0,0,1-5.487-14.962c-1-3.564-.674-7.489-1.6-11.082-1.538-5.968-2.157-12.942-5.728-17.468-9.867-12.5-16.031-25.952-16.781-41.94a23.253,23.253,0,0,0-5.074-13.017C277.888,170.89,268.939,159.131,263.691,144.526Zm4.32,249.31c1.84-8.759,1.777-8.581-5.985-11.305-8.688-3.048-17.292-6.351-25.853-9.745-13.776-5.463-27.542-10.961-41.2-16.711a168.6,168.6,0,0,1-16.354-8.23,26.471,26.471,0,0,1-7.23-5.54c-5.833-6.8-11.036-14.143-17.035-20.779-4.572-5.057-3.984-10.879,2.066-14.216a18.97,18.97,0,0,0,6.333-5.034,7.428,7.428,0,0,0,.815-6.192c-.6-1.429-3.337-2.817-5.065-2.743a43.127,43.127,0,0,0-12,2.033c-8.656,2.955-8.953,3.959-5.893,12.291,3.236,8.814-1.978,16.054-11.29,14.853-3.282-.423-6.468-2.851-9.347-4.865-5.306-3.71-10.129-8.147-15.595-11.578a28.154,28.154,0,0,0-10.771-3.606c-3.366-.484-5.915,2.572-6.61,6.377-.632,3.459,1.117,5.53,4.02,6.735,2.871,1.191,5.868,2.076,8.8,3.117a18.74,18.74,0,0,1,11.016,9.548c1.954,3.925,1.54,7.874-2.081,10.284a25.622,25.622,0,0,1-8.9,3.453c-5.351,1.1-10.932,1.191-16.209,2.527-6.083,1.539-8.067,5.669-6.623,11.734.856,3.594,2.945,5.172,6.509,4.176a107.084,107.084,0,0,0,10.076-3.867c5.191-2.037,10.241-4.662,15.611-5.958,6.276-1.516,10.336,3.771,8.019,9.89a10.091,10.091,0,0,1-3.388,4.758A86.573,86.573,0,0,1,101.8,371.85c-4.058,1.806-7.357,4.117-7.394,8.839a7.5,7.5,0,0,0,2.439,5.273c1.054.842,3.675.663,5.06-.074,2.023-1.076,3.559-3.065,5.31-4.656,3.226-2.93,6.167-6.307,9.785-8.625a16,16,0,0,1,9.017-2.449c10.207.631,20.151.6,29.591-4.182a93.484,93.484,0,0,1,12.782-5.235,10.26,10.26,0,0,1,6.1-.072q31.331,10.562,62.539,21.482C247.344,385.783,257.506,389.858,268.011,393.836ZM676.642,334.52c.5,1.251,1.2,3.1,1.967,4.91,1.967,4.646,2.771,4.916,7.064,2.432.539-.312,1.027-.711,1.558-1.037,15-9.182,30.176-18.093,44.929-27.656,6.813-4.417,13.2-5.375,20.65-2.251,4.391,1.842,8.745,1.4,13.132-1.417,9.645-6.195,18.875-4.831,27.23,3.112a82.735,82.735,0,0,0,9.512,7.839c3.661,2.56,6.661,1.613,9.388-2.411,1.908-2.816,1.024-6.614-2.507-8.558-3.909-2.153-8.18-3.64-12.139-5.712-4.264-2.232-8.732-4.338-12.411-7.352-4.386-3.594-3.016-9.437,2.283-11.435a23.458,23.458,0,0,1,6.882-1.531c5.58-.3,11.215.088,16.757-.487,5.023-.521,6.545-5.166,3.184-9.03a14,14,0,0,0-4.53-3.152c-6.233-2.977-12.48-2.419-18.87-.161a37.913,37.913,0,0,1-10.868,2.328c-5.9.244-8.9-4.366-5.977-9.555,2.143-3.809,5.456-7.038,8.592-10.183,2-2,4.654-3.327,6.951-5.042,2.617-1.953,3.588-4.568,2.052-7.542-1.441-2.789-4.063-3.041-6.814-2.23-6.851,2.02-12.426,5.905-15.857,12.2a115.34,115.34,0,0,0-5.977,13.656,9.037,9.037,0,0,1-6.6,5.981c-4.935,1.261-10.961-2.575-12.964-8.338-.939-2.7-1.752-5.456-2.808-8.111-2.969-7.46-7.086-9.951-15.051-9.27-4.191.359-7.171,3.712-7.344,8.427-.154,4.167,3.194,4.1,5.929,4.72.486.11.985.163,1.472.272,5.556,1.239,8.938,5.221,8.832,10.884a59.084,59.084,0,0,1-1.062,9.235c-.9,5.063-1.757,9.965.8,14.948a5.548,5.548,0,0,1-1.785,7.358c-2.411,1.773-4.725,3.714-7.279,5.253C709.073,315.189,693.125,324.674,676.642,334.52Zm-425.4,39.348c2.8,1.317,5.572,2.632,8.353,3.923,2.85,1.323,5.71,2.623,8.6,3.949-.164-3.04-.307-5.678-.5-9.307,7.235,8.041,8.1,18.591,2.96,26.531-2.907,4.487-9.088,7.319-13.8,5.838l9.149-7.123L245.6,390.233c-1.4,12.872,2.67,21.924,14.6,24.6,9.714,2.181,19.36,4.724,29.148,6.5,8.361,1.512,16.855,1.859,25.242-.507,10.442-2.945,13.141-10.06,6.577-18.836-2.877-3.845-6.606-7.117-10.24-10.319-9.453-8.33-18.716-16.939-28.717-24.568C272.3,359.538,259.312,361.176,251.246,373.868ZM375.71,488.148a26.4,26.4,0,0,0,3.052-.015q16.476-2.236,32.946-4.527,48.3-6.679,96.58-13.438a5.08,5.08,0,0,0,3.018-2.118c2.021-3,1.48-5.641-1.468-7.923a93.66,93.66,0,0,1-7.627-6.613c-1.535-1.48-2.609-1.638-4.4-.25q-10.329,8.013-20.95,15.645c-1.229.881-3.469,1.633-4.64,1.106-7.253-3.266-14.3-6.992-21.506-10.362a6.135,6.135,0,0,0-4.574-.3c-7.057,3.31-14.3,3.77-21.892,2.576a87.718,87.718,0,0,0-16.3-1.465c-9.218.3-18.362,1.574-26.788,5.849a8.036,8.036,0,0,1-2.87.679c-2.925.267-4.264,1.884-4.04,4.724C374.683,477.142,375.21,482.562,375.71,488.148Zm260.577-55.666c-8.876,3.172-17.482,2.631-25.949,0-7.381-2.289-13.952-.675-20.291,3.215-11.685,7.171-23.463,14.194-35.075,21.48-2.6,1.632-4.759,1.726-7.15.108-4.83-3.27-9.639-6.571-15.143-10.327-2.114,4.527-4.323,8.925-6.232,13.449-1.659,3.931,1.015,7.057,5.194,6.354q2.951-.5,5.912-.914,47.937-6.8,95.864-13.685c1.056-.154,2.7-1.6,2.742-2.508C636.417,444.2,636.287,438.729,636.287,432.482Zm40.977-77.9c-.006-8.462-5.256-20.528-11.643-25.89a25.538,25.538,0,0,0-7.374-4.231A7.871,7.871,0,0,0,647.535,331c-1,8.106-1.054,16.231,2.61,23.793,2.681,5.53,2.5,10.956.78,16.643a39.355,39.355,0,0,0-.873,6.639c2.4-.109,4.893.183,7.169-.394C669.892,374.47,677.272,365.84,677.264,354.585ZM370.316,487.661c0-4.072.074-7.55-.017-11.025-.138-5.257-1.443-9.767-7.477-11.155a8.715,8.715,0,0,1-2.98-1.531c-5.008-3.609-9.955-3.329-14.816.2a11.475,11.475,0,0,1-11.359,1.518c-6.19-2.473-12.107-5.626-18.167-8.433-1.535-.711-3.173-1.2-5.724-2.145.821,6.21,1.67,11.225,2.067,16.275.177,2.243,1.172,2.906,3.053,3.333,5.939,1.349,11.849,2.825,17.78,4.211C345.122,481.818,357.575,484.7,370.316,487.661Zm27.825,141.272c0,8.563.115,16.4-.044,24.236-.094,4.625.428,6.215,5.039,6.872,3.109.443,6.486-.537,9.652-1.274.789-.183,1.836-1.956,1.729-2.879-.931-8.025-2.05-16.031-3.267-24.019a3.022,3.022,0,0,0-1.944-2.052C405.76,629.363,402.175,629.22,398.141,628.933Zm152.666-22.191c0,8.812-.059,17.515.081,26.215.016.982.992,2.6,1.8,2.8,2.8.681,5.81,1.489,8.573,1.091,4.1-.591,4.878-2.293,4.259-6.327-.283-1.843-.669-3.681-.8-5.535-.4-5.684-.7-11.374-1.054-17.252Zm14.524-54.987c-2.306.378-3.882.637-5.459.894-6.5,1.059-6.635,1.043-7.343,7.622-.622,5.782-.886,11.6-1.343,17.9,3.831,0,7.131.126,10.408-.09.814-.053,2.181-1.163,2.235-1.868C564.436,568.287,564.837,560.349,565.331,551.755ZM411.565,574.436c-3.291,0-6.391-.152-9.457.1A3.161,3.161,0,0,0,400,576.731c-.662,7.306-1.16,14.63-1.546,21.956-.044.843.765,2.373,1.392,2.5a35.664,35.664,0,0,0,8.095.763c.83-.03,2.238-1.607,2.3-2.551C410.814,591.339,411.134,583.266,411.565,574.436Zm139.428,30.019c3.511,0,7.25.113,10.97-.1a2.919,2.919,0,0,0,1.954-2.069c.152-6.8.09-13.6.09-20.052l-13.014-1.38ZM398.424,604.1c-.283,6.485-.667,12.8-.743,19.111-.015,1.24,1.061,3.5,1.8,3.568a46.178,46.178,0,0,0,9.542-.255c.622-.07,1.514-1.629,1.534-2.518.136-6.047.071-12.1.071-18.059ZM487.258,454.5l-.32-.919c-10.635-.116-21.323-.865-31.859,3.2,5.223,3.367,10.577,6.347,16.015,9.167a2.993,2.993,0,0,0,2.623-.363C478.29,461.97,482.757,458.215,487.258,454.5Zm64.219.971,13.281-9.531-.41-1.368H538.169Zm56.7,189.556c-.35-.458-.972-2.038-2.072-2.513-1.283-.553-3.646-.782-4.379-.027a34.559,34.559,0,0,0-5.73,7.93c-.488.932.414,3.194,1.381,4.107a5.085,5.085,0,0,0,4.053.708C604.3,654.559,608.093,649.059,608.178,645.029ZM451.963,680.87c-5.585-.109-10.26,2.708-10.074,5.517.169,2.562,1.178,4.608,4.242,4.624,3.619.02,7.931-3.937,7.584-7.3C453.593,682.528,452.349,681.46,451.963,680.87Zm-39.97,17.709,6.065-3.242-6.065-4.584Zm154.22-32.419-.718.749c.747,1.6,1.493,3.2,2.374,5.088l3.832-3.2Z" transform="translate(-58.5 -74.25)"/>
    <path d="M366.593,435.1a36.231,36.231,0,0,0-6.279-26.529c-3.882-5.607-5.278-11.977-4.472-19.177.783-6.992-.11-14.187-.5-21.281a12.748,12.748,0,0,0-1.724-4.833c-4.176-8.093-8.776-15.989-12.53-24.27-1.8-3.961-2.37-8.583-2.92-12.979-.805-6.426-.916-12.937-1.643-19.376-.84-7.441-3.224-14.441-8.121-20.211-7.07-8.331-9.294-18.334-10.515-28.717-.465-3.959-.316-7.989-.773-11.948a16.481,16.481,0,0,0-1.889-6.351,61.684,61.684,0,0,0-7.073-10.095,42.854,42.854,0,0,1-11.383-26.256c-.286-3.84-1.166-7.636-1.747-11.456-1.371-9.026-6.679-15.89-12.967-21.822-7.216-6.808-9.945-15.63-12.806-24.529-1.3-4.04.695-6.666,3.864-8.813,7.145-4.839,15.125-5.038,23.1-3.552,10.922,2.037,21.2.127,30.126-5.821,7.636-5.09,15.255-5.411,23.55-3.778,8.069,1.588,16.145,3.156,24.177,4.921,7.155,1.572,13.877.41,20.409-2.591,1.7-.782,3.49-1.409,5.105-2.34,11.369-6.558,23.524-7.726,36.219-5.475,15.012,2.661,29.663,2.029,43.279-5.628,12.415-6.981,25.648-6.224,39.029-4.774a86.715,86.715,0,0,0,10.8,1A27.226,27.226,0,0,0,538,106.794c5.7-2.18,11.223-4.852,16.776-7.411a20.75,20.75,0,0,1,14.558-1.213,74.123,74.123,0,0,0,14.693,2.623c3.314.181,6.8-.93,10.055-1.943,4.5-1.4,8.762-3.642,13.309-4.811a10.679,10.679,0,0,1,12.724,6.79,44.029,44.029,0,0,1,2.444,11.628c.528,7.591.225,15.242.823,22.824.286,3.631,1.607,7.248,2.891,10.711,1.253,3.38,3.043,6.562,4.618,9.821a52.255,52.255,0,0,1,4.536,30.65,75.845,75.845,0,0,0,4.05,37.9c4.217,11.233,4.18,22.866,1.016,34.243-2.549,9.166-1.211,17.774,1.536,26.419,3.175,9.989,4.164,19.884.649,30.081-4.026,11.682-4.165,23.375.427,35.131a33.376,33.376,0,0,1,.362,22.5c-4.84,14.908-4.424,29.7-.92,44.631.61,2.6-.275,4.037-2.263,5.276-5.679,3.539-11.956,4.784-18.546,5.072-8.845.387-17.7.732-26.511,1.553a19.2,19.2,0,0,0-8.276,3.1c-9.909,6.428-20.573,8.441-32.2,6.9-12.916-1.709-25.818-2.886-38.255,2.976a33.692,33.692,0,0,1-10.483,2.627c-10.283,1.156-20.592,2.5-30.914,2.743a55.068,55.068,0,0,0-23.513,5.357c-11.95,5.945-23.87,5.562-36.388,2.544-10.073-2.428-20.493-1.079-28.77,4.782-11.125,7.878-18.994,0-19.782-11.33C366.325,444.369,366.593,439.727,366.593,435.1Zm24.033-125.042c.515,2.046.77,3.5,1.243,4.877,9.231,26.859,22.075,51.586,42.975,71.38a148.816,148.816,0,0,0,15.168,12.189,61.78,61.78,0,0,0,41.9,11.946c15.788-1.121,30.766-4.945,44.526-12.729,7.541-4.265,11.968-10.84,11.161-20.06-.636-7.273-1.2-14.551-1.824-22.114.97-.234,2.437-.489,3.84-.942,9.46-3.061,10.576-3.641,8.442-14.118-.818-4.011-2.03-7.948-3.2-11.879-.884-2.981-.084-4.5,3.064-5.465,6.3-1.936,12.52-4.189,18.66-6.6a29.828,29.828,0,0,0,14.369-11.159c-5.85-1.985-11.381-3.575-16.678-5.739-5.5-2.245-10.765-5.045-16.447-7.752,8.556-4.558,16.6-8.492,24.286-13.031,8.716-5.147,17.1-10.872,23.3-19.129,11.83-15.748,4.867-33.612-14.81-36.885.107-10.583-1.345-21.051-6.813-30.444-5.533-9.506-13.688-16.392-23.333-21.6l8.289-17.556-8.855-4.84L553.2,165.761l-23.077-3.793c-.623-6.049-1.293-12.554-1.98-19.222l-10.7.666c.923,5.356,1.688,10.387,2.688,15.371.544,2.713.346,4.008-2.947,4.919-6.277,1.736-12.289,4.432-18.784,6.869-2.876-4.443-6.295-9.725-9.88-15.265L479.9,161.8l12.436,15.648c-7.577,5.666-11.845,13.5-15.509,22.35-7.652-8.945-16.641-15.19-27.565-18.551,1.54-6.436,3-12.531,4.508-18.838l-10.324-2.552c-1.264,6.642-2.458,12.92-3.672,19.294-8.421-1.856-16.4-2.591-24.451.775-1.791-6.619-3.5-12.952-5.3-19.59l-9.179,4.027c2.226,6.263,4.291,12.073,6.171,17.361l-19.084,12.564c-4.287-4.589-8.937-9.567-13.769-14.738l-6.115,7.786,14.624,13.51c-15.3,24.288-15.629,48.247-.249,72.585a37.455,37.455,0,0,0-5.275,1.908c-5.235,2.82-10.721,5.347-15.467,8.857-4.926,3.644-7.687,9.082-6.691,15.434a29.375,29.375,0,0,0,9.138,17.63c3.347,3.054,7.44,3.855,11.835,3.587-.321-.7-.749-1.265-1.258-1.352-4.611-.786-7.221-4.193-9.876-7.5-7.706-9.584-6.337-19.684,4.154-26.12a140.286,140.286,0,0,1,19.474-9.5c10.63-4.428,23.66-.1,30.046,9.547,3.116,4.707,4.465,9.71,2.575,15.275-.515,1.517-.893,3.079-1.333,4.621l.842.383c1.168-1.988,2.834-3.848,3.381-5.994.745-2.92,2.22-3.157,4.819-3.039,24.9,1.13,45-11.287,55.3-33.969.554-1.219,1.258-2.37,1.664-3.128l20.33,15.245-8.889,3.879.415,1.214a27.751,27.751,0,0,0,3.007-.351c13.139-2.963,24.694-9.353,35.512-17.049,12.607-8.97,24.766-18.572,37.442-27.44a55.357,55.357,0,0,1,14.742-6.981A13.92,13.92,0,0,1,603.625,233c4,4.576,3.039,9.8.716,14.758-4,8.556-10.567,15.07-17.614,21.115-8.857,7.6-19.511,12.223-30.1,16.445-9.733,3.882-20.213,5.923-30.416,8.575-2.624.682-5.444.605-8.173.887-2.71.28-5.419.574-8.128.862a2.79,2.79,0,0,0,2.013,1.333c12.156,1.306,24.215.793,35.9-2.954,4.706-1.509,8.844-2.667,12.646,1.7a10.622,10.622,0,0,0,3.868,2.218c6.487,2.789,13,5.506,19.942,8.43a29.229,29.229,0,0,1-4.564,2.595c-9.508,3.308-18.855,7.491-28.643,9.492-16.695,3.413-33.614,5.981-50.555,7.875a190.173,190.173,0,0,1-48.918-1.254c-11.861-1.745-22.665-6.621-33.749-10.7-5.907-2.174-11.774-4.456-18.416-6.976l10.907-3.13c-4.042-4.948-13.229-5.375-21.048-1.6-4.347,2.1-6.588,6.3-5.522,10.651Zm-6.28-14.944c3.358,2.982,5.916,3.107,8.056.79a2.853,2.853,0,0,0,.6-2.506,2.627,2.627,0,0,0-2.292-1.149A61,61,0,0,0,384.346,295.117Zm-4.874-4.527-.156-1.68c-2.1-.271-4.227-.849-6.284-.661-.814.075-1.471,1.856-2.2,2.86,1.018.647,2.171,1.973,3.029,1.8C375.809,292.53,377.611,291.41,379.472,290.59Zm12.749-6.792.6,1.65a40.878,40.878,0,0,0,5.839-1.281c.515-.185.952-1.847.683-2.547a2.554,2.554,0,0,0-2.393-.817A37.454,37.454,0,0,0,392.221,283.8Z" transform="translate(-58.5 -74.25)" style="fill: #fff"/>
    <path d="M263.691,144.526c5.248,14.6,14.2,26.364,23.057,38.112a23.253,23.253,0,0,1,5.074,13.017c.75,15.988,6.914,29.438,16.781,41.94,3.571,4.526,4.19,11.5,5.728,17.468.926,3.593.6,7.518,1.6,11.082a85.79,85.79,0,0,0,5.487,14.962c3.044,6.139,6.959,11.84,10.236,17.873a27.816,27.816,0,0,1,2.192,7.011,12.3,12.3,0,0,1,.111,4.109c-1.977,17.064,5.016,31.688,12.414,46.239,5.044,9.921,6.089,20.487,4.323,31.355a20.7,20.7,0,0,0,2.22,12.682,85.564,85.564,0,0,0,6.521,11.788c6.274,8.912,5.782,18.841,4.836,28.835-.74,7.816-1.514,15.522,4.555,21.957l-.617.73c-3.474-1.987-7.168-3.676-10.374-6.029-5.373-3.941-11.043-4.249-16.544-1.274-4.848,2.621-9.168,2.091-13.441-.463a36.9,36.9,0,0,0-16.821-5.426c-10.077-.725-15.329-9.938-12.105-19.518.669-1.987,1.631-2.682,3.739-2.7,4.221-.035,8.617.254,12.626-.794,14.42-3.773,18.987-16.85,9.964-28.7-11.93-15.675-26.292-28.716-43.781-38.036-3.379-1.8-4.8-3.587-4.567-7.983.613-11.805-3.539-22.276-12.954-29.692-5.378-4.236-6.453-9.782-7.434-15.662a47.187,47.187,0,0,1-.764-9.321c.249-7.248-2.835-13.03-7.37-18.277a27.207,27.207,0,0,0-3.829-4.106c-7.606-5.753-10.1-13.843-10.641-22.827-.644-10.772-6.357-18.283-14.876-24.289a56.149,56.149,0,0,1-8.754-8.091c-3.127-3.41-3.924-7.7-3.459-12.246a6.793,6.793,0,0,1,5.6-6.294c10.731-2.141,15.63-9.037,17.392-19.313,1.107-6.458,4.291-11.607,11.5-13.188,2.384-.522,4.542-2.032,6.838-3.008,6.25-2.659,10.413-7.007,12.1-13.781C260.953,149.841,262.518,147.232,263.691,144.526Zm17.757,67.181c-.423-7.726-3.789-15.715-9.132-20.521-6.328-5.693-20.133-7.422-25,3.356-4.626,10.235-4.862,20.4.662,30.558,3.572,6.566,8.474,10.3,16.212,9.584,7.933-.729,12.641-4.423,15.06-12.4C280.285,218.849,280.732,215.237,281.448,211.707Zm38.9,112.965c-.465-2.551-.726-5.16-1.431-7.642-2.962-10.422-14.214-14.239-22.868-7.664-13.624,10.35-13.808,23.155-5.909,37.059a11.107,11.107,0,0,0,16.11,3.159C314.137,343.288,320.263,335.69,320.347,324.672Zm-33.063-43.766-.59-.226a30.309,30.309,0,0,0-.461-4.45c-1.037-4.151-2.821-7.912-7.494-8.859-3.757-.761-7.335.073-9.648,3.413-2.917,4.21-4.431,8.881-3.461,14.107.8,4.332,5.288,9.558,8.834,10.266a9.262,9.262,0,0,0,9.682-4.879C285.593,287.353,286.267,284.045,287.284,280.906Z" transform="translate(-58.5 -74.25)" style="fill: #fff"/>
    <path d="M268.011,393.836c-10.505-3.978-20.667-8.053-30.986-11.685q-31.188-10.976-62.539-21.482a10.26,10.26,0,0,0-6.1.072,93.484,93.484,0,0,0-12.782,5.235c-9.44,4.785-19.384,4.813-29.591,4.182A16,16,0,0,0,117,372.607c-3.618,2.318-6.559,5.695-9.785,8.625-1.751,1.591-3.287,3.58-5.31,4.656-1.385.737-4.006.916-5.06.074a7.5,7.5,0,0,1-2.439-5.273c.037-4.722,3.336-7.033,7.394-8.839a86.573,86.573,0,0,0,12.052-6.607,10.091,10.091,0,0,0,3.388-4.758c2.317-6.119-1.743-11.406-8.019-9.89-5.37,1.3-10.42,3.921-15.611,5.958a107.084,107.084,0,0,1-10.076,3.867c-3.564,1-5.653-.582-6.509-4.176-1.444-6.065.54-10.2,6.623-11.734,5.277-1.336,10.858-1.423,16.209-2.527a25.622,25.622,0,0,0,8.9-3.453c3.621-2.41,4.035-6.359,2.081-10.284A18.74,18.74,0,0,0,99.817,318.7c-2.934-1.041-5.931-1.926-8.8-3.117-2.9-1.205-4.652-3.276-4.02-6.735.695-3.805,3.244-6.861,6.61-6.377a28.154,28.154,0,0,1,10.771,3.606c5.466,3.431,10.289,7.868,15.6,11.578,2.879,2.014,6.065,4.442,9.347,4.865,9.312,1.2,14.526-6.039,11.29-14.853-3.06-8.332-2.763-9.336,5.893-12.291a43.127,43.127,0,0,1,12-2.033c1.728-.074,4.463,1.314,5.065,2.743a7.428,7.428,0,0,1-.815,6.192,18.97,18.97,0,0,1-6.333,5.034c-6.05,3.337-6.638,9.159-2.066,14.216,6,6.636,11.2,13.984,17.035,20.779a26.471,26.471,0,0,0,7.23,5.54,168.6,168.6,0,0,0,16.354,8.23c13.658,5.75,27.424,11.248,41.2,16.711,8.561,3.394,17.165,6.7,25.853,9.745C269.788,385.255,269.851,385.077,268.011,393.836Zm-111.952-46.72c-5.054-7.967-13.835-8.278-22.358-6.166-3.181.788-5.927,2.372-7.141,5.679,3.07-1.041,5.761-2.773,8.381-2.673,5.51.212,10.986,1.363,16.467,2.18C152.972,346.37,154.51,346.784,156.059,347.116Z" transform="translate(-58.5 -74.25)" style="fill: #fff"/>
    <path d="M676.642,334.52c16.483-9.846,32.431-19.331,48.323-28.907,2.554-1.539,4.868-3.48,7.279-5.253A5.548,5.548,0,0,0,734.029,293c-2.558-4.983-1.706-9.885-.8-14.948a59.084,59.084,0,0,0,1.062-9.235c.106-5.663-3.276-9.645-8.832-10.884-.487-.109-.986-.162-1.472-.272-2.735-.621-6.083-.553-5.929-4.72.173-4.715,3.153-8.068,7.344-8.427,7.965-.681,12.082,1.81,15.051,9.27,1.056,2.655,1.869,5.408,2.808,8.111,2,5.763,8.029,9.6,12.964,8.338a9.037,9.037,0,0,0,6.6-5.981A115.34,115.34,0,0,1,768.8,250.6c3.431-6.294,9.006-10.179,15.857-12.2,2.751-.811,5.373-.559,6.814,2.23,1.536,2.974.565,5.589-2.052,7.542-2.3,1.715-4.956,3.041-6.951,5.042-3.136,3.145-6.449,6.374-8.592,10.183-2.919,5.189.073,9.8,5.977,9.555a37.913,37.913,0,0,0,10.868-2.328c6.39-2.258,12.637-2.816,18.87.161a14,14,0,0,1,4.53,3.152c3.361,3.864,1.839,8.509-3.184,9.03-5.542.575-11.177.183-16.757.487a23.458,23.458,0,0,0-6.882,1.531c-5.3,2-6.669,7.841-2.283,11.435,3.679,3.014,8.147,5.12,12.411,7.352,3.959,2.072,8.23,3.559,12.139,5.712,3.531,1.944,4.415,5.742,2.507,8.558-2.727,4.024-5.727,4.971-9.388,2.411a82.735,82.735,0,0,1-9.512-7.839c-8.355-7.943-17.585-9.307-27.23-3.112-4.387,2.818-8.741,3.259-13.132,1.417-7.451-3.124-13.837-2.166-20.65,2.251-14.753,9.563-29.928,18.474-44.929,27.656-.531.326-1.019.725-1.558,1.037-4.293,2.484-5.1,2.214-7.064-2.432C677.84,337.615,677.142,335.771,676.642,334.52Zm66.751-37.339c6.9-6.907,14.01-13,24.687-12.173-3.346-3.814-7.941-4.584-13.417-2.536C748.713,284.7,743.327,291.533,743.393,297.181Z" transform="translate(-58.5 -74.25)" style="fill: #fff"/>
    <path d="M251.246,373.868c8.066-12.692,21.054-14.33,30.966-6.768,10,7.629,19.264,16.238,28.717,24.568,3.634,3.2,7.363,6.474,10.24,10.319,6.564,8.776,3.865,15.891-6.577,18.836-8.387,2.366-16.881,2.019-25.242.507-9.788-1.771-19.434-4.314-29.148-6.5-11.935-2.678-16-11.73-14.6-24.6l20.415,7.446-9.149,7.123c4.708,1.481,10.889-1.351,13.8-5.838,5.144-7.94,4.275-18.49-2.96-26.531.2,3.629.339,6.267.5,9.307-2.893-1.326-5.753-2.626-8.6-3.949C256.818,376.5,254.047,375.185,251.246,373.868Z" transform="translate(-58.5 -74.25)" style="fill: #fff"/>
    <path d="M375.71,488.148c-.5-5.586-1.027-11.006-1.456-16.434-.224-2.84,1.115-4.457,4.04-4.724a8.036,8.036,0,0,0,2.87-.679c8.426-4.275,17.57-5.552,26.788-5.849a87.718,87.718,0,0,1,16.3,1.465c7.6,1.194,14.835.734,21.892-2.576a6.135,6.135,0,0,1,4.574.3c7.209,3.37,14.253,7.1,21.506,10.362,1.171.527,3.411-.225,4.64-1.106q10.623-7.619,20.95-15.645c1.79-1.388,2.864-1.23,4.4.25a93.66,93.66,0,0,0,7.627,6.613c2.948,2.282,3.489,4.921,1.468,7.923a5.08,5.08,0,0,1-3.018,2.118q-48.276,6.816-96.58,13.438-16.472,2.279-32.946,4.527A26.4,26.4,0,0,1,375.71,488.148Z" transform="translate(-58.5 -74.25)" style="fill: #fff"/>
    <path d="M636.287,432.482c0,6.247.13,11.72-.128,17.176-.043.907-1.686,2.354-2.742,2.508q-47.914,6.962-95.864,13.685-2.961.42-5.912.914c-4.179.7-6.853-2.423-5.194-6.354,1.909-4.524,4.118-8.922,6.232-13.449,5.5,3.756,10.313,7.057,15.143,10.327,2.391,1.618,4.549,1.524,7.15-.108,11.612-7.286,23.39-14.309,35.075-21.48,6.339-3.89,12.91-5.5,20.291-3.215C618.8,435.113,627.411,435.654,636.287,432.482Z" transform="translate(-58.5 -74.25)" style="fill: #fff"/>
    <path d="M677.264,354.585c.008,11.255-7.372,19.885-20.043,23.1-2.276.577-4.773.285-7.169.394a39.355,39.355,0,0,1,.873-6.639c1.724-5.687,1.9-11.113-.78-16.643-3.664-7.562-3.615-15.687-2.61-23.793a7.871,7.871,0,0,1,10.712-6.539,25.538,25.538,0,0,1,7.374,4.231C672.008,334.057,677.258,346.123,677.264,354.585Z" transform="translate(-58.5 -74.25)" style="fill: #fff"/>
    <path d="M370.316,487.661c-12.741-2.961-25.194-5.843-37.64-8.751-5.931-1.386-11.841-2.862-17.78-4.211-1.881-.427-2.876-1.09-3.053-3.333-.4-5.05-1.246-10.065-2.067-16.275,2.551.947,4.189,1.434,5.724,2.145,6.06,2.807,11.977,5.96,18.167,8.433a11.475,11.475,0,0,0,11.359-1.518c4.861-3.53,9.808-3.81,14.816-.2a8.715,8.715,0,0,0,2.98,1.531c6.034,1.388,7.339,5.9,7.477,11.155C370.39,480.111,370.316,483.589,370.316,487.661Z" transform="translate(-58.5 -74.25)" style="fill: #fff"/>
    <path d="M398.141,628.933c4.034.287,7.619.43,11.165.884a3.022,3.022,0,0,1,1.944,2.052c1.217,7.988,2.336,15.994,3.267,24.019.107.923-.94,2.7-1.729,2.879-3.166.737-6.543,1.717-9.652,1.274-4.611-.657-5.133-2.247-5.039-6.872C398.256,645.335,398.141,637.5,398.141,628.933Z" transform="translate(-58.5 -74.25)" style="fill: #fff"/>
    <path d="M550.807,606.742l12.855.99c.351,5.878.652,11.568,1.054,17.252.132,1.854.518,3.692.8,5.535.619,4.034-.156,5.736-4.259,6.327-2.763.4-5.773-.41-8.573-1.091-.8-.2-1.781-1.816-1.8-2.8C550.748,624.257,550.807,615.554,550.807,606.742Z" transform="translate(-58.5 -74.25)" style="fill: #fff"/>
    <path d="M565.331,551.755c-.494,8.594-.895,16.532-1.5,24.454-.054.705-1.421,1.815-2.235,1.868-3.277.216-6.577.09-10.408.09.457-6.293.721-12.114,1.343-17.9.708-6.579.847-6.563,7.343-7.622C561.449,552.392,563.025,552.133,565.331,551.755Z" transform="translate(-58.5 -74.25)" style="fill: #fff"/>
    <path d="M411.565,574.436c-.431,8.83-.751,16.9-1.32,24.959-.066.944-1.474,2.521-2.3,2.551a35.664,35.664,0,0,1-8.095-.763c-.627-.123-1.436-1.653-1.392-2.5.386-7.326.884-14.65,1.546-21.956a3.161,3.161,0,0,1,2.108-2.191C405.174,574.284,408.274,574.436,411.565,574.436Z" transform="translate(-58.5 -74.25)" style="fill: #fff"/>
    <path d="M550.993,604.455v-23.6l13.014,1.38c0,6.449.062,13.253-.09,20.052a2.919,2.919,0,0,1-1.954,2.069C558.243,604.568,554.5,604.455,550.993,604.455Z" transform="translate(-58.5 -74.25)" style="fill: #fff"/>
    <path d="M398.424,604.1l12.2,1.847c0,5.96.065,12.012-.071,18.059-.02.889-.912,2.448-1.534,2.518a46.178,46.178,0,0,1-9.542.255c-.739-.072-1.815-2.328-1.8-3.568C397.757,616.893,398.141,610.582,398.424,604.1Z" transform="translate(-58.5 -74.25)" style="fill: #fff"/>
    <path d="M487.258,454.5c-4.5,3.713-8.968,7.468-13.541,11.09a2.993,2.993,0,0,1-2.623.363c-5.438-2.82-10.792-5.8-16.015-9.167,10.536-4.07,21.224-3.321,31.859-3.2Z" transform="translate(-58.5 -74.25)" style="fill: #fff"/>
    <path d="M551.477,455.473l-13.308-10.9h26.179l.41,1.368Z" transform="translate(-58.5 -74.25)" style="fill: #fff"/>
    <path d="M608.178,645.029c-.085,4.03-3.877,9.53-6.747,10.205a5.085,5.085,0,0,1-4.053-.708c-.967-.913-1.869-3.175-1.381-4.107a34.559,34.559,0,0,1,5.73-7.93c.733-.755,3.1-.526,4.379.027C607.206,642.991,607.828,644.571,608.178,645.029Z" transform="translate(-58.5 -74.25)" style="fill: #fff"/>
    <path d="M451.963,680.87c.386.59,1.63,1.658,1.752,2.842.347,3.362-3.965,7.319-7.584,7.3-3.064-.016-4.073-2.062-4.242-4.624C441.7,683.578,446.378,680.761,451.963,680.87Z" transform="translate(-58.5 -74.25)" style="fill: #fff"/>
    <path d="M411.993,698.579v-7.826l6.065,4.584Z" transform="translate(-58.5 -74.25)" style="fill: #fff"/>
    <path d="M566.213,666.16l5.488,2.633-3.832,3.2c-.881-1.89-1.627-3.489-2.374-5.088Z" transform="translate(-58.5 -74.25)" style="fill: #fff"/>
    <path d="M390.626,310.061l-6.849,3.26c-1.066-4.348,1.175-8.554,5.522-10.651,7.819-3.774,17.006-3.347,21.048,1.6L399.44,307.4c6.642,2.52,12.509,4.8,18.416,6.976,11.084,4.079,21.888,8.955,33.749,10.7a190.173,190.173,0,0,0,48.918,1.254c16.941-1.894,33.86-4.462,50.555-7.875,9.788-2,19.135-6.184,28.643-9.492a29.229,29.229,0,0,0,4.564-2.595c-6.937-2.924-13.455-5.641-19.942-8.43a10.622,10.622,0,0,1-3.868-2.218c-3.8-4.367-7.94-3.209-12.646-1.7-11.688,3.747-23.747,4.26-35.9,2.954a2.79,2.79,0,0,1-2.013-1.333c2.709-.288,5.418-.582,8.128-.862,2.729-.282,5.549-.2,8.173-.887,10.2-2.652,20.683-4.693,30.416-8.575,10.586-4.222,21.24-8.848,30.1-16.445,7.047-6.045,13.609-12.559,17.614-21.115,2.323-4.96,3.286-10.182-.716-14.758a13.92,13.92,0,0,0-15.315-4.411,55.357,55.357,0,0,0-14.742,6.981c-12.676,8.868-24.835,18.47-37.442,27.44-10.818,7.7-22.373,14.086-35.512,17.049a27.751,27.751,0,0,1-3.007.351l-.415-1.214,8.889-3.879-20.33-15.245c-.406.758-1.11,1.909-1.664,3.128-10.305,22.682-30.4,35.1-55.3,33.969-2.6-.118-4.074.119-4.819,3.039-.547,2.146-2.213,4.006-3.381,5.994l-.842-.383c.44-1.542.818-3.1,1.333-4.621,1.89-5.565.541-10.568-2.575-15.275-6.386-9.646-19.416-13.975-30.046-9.547a140.286,140.286,0,0,0-19.474,9.5c-10.491,6.436-11.86,16.536-4.154,26.12,2.655,3.3,5.265,6.71,9.876,7.5.509.087.937.649,1.258,1.352-4.4.268-8.488-.533-11.835-3.587a29.375,29.375,0,0,1-9.138-17.63c-1-6.352,1.765-11.79,6.691-15.434,4.746-3.51,10.232-6.037,15.467-8.857a37.455,37.455,0,0,1,5.275-1.908c-15.38-24.338-15.047-48.3.249-72.585l-14.624-13.51,6.115-7.786c4.832,5.171,9.482,10.149,13.769,14.738l19.084-12.564c-1.88-5.288-3.945-11.1-6.171-17.361l9.179-4.027c1.8,6.638,3.51,12.971,5.3,19.59,8.056-3.366,16.03-2.631,24.451-.775,1.214-6.374,2.408-12.652,3.672-19.294l10.324,2.552c-1.509,6.307-2.968,12.4-4.508,18.838,10.924,3.361,19.913,9.606,27.565,18.551,3.664-8.849,7.932-16.684,15.509-22.35L479.9,161.8l8.625-6.491c3.585,5.54,7,10.822,9.88,15.265,6.5-2.437,12.507-5.133,18.784-6.869,3.293-.911,3.491-2.206,2.947-4.919-1-4.984-1.765-10.015-2.688-15.371l10.7-.666c.687,6.668,1.357,13.173,1.98,19.222l23.077,3.793,6.694-17.345,8.855,4.84-8.289,17.556c9.645,5.2,17.8,12.09,23.333,21.6,5.468,9.393,6.92,19.861,6.813,30.444,19.677,3.273,26.64,21.137,14.81,36.885-6.2,8.257-14.586,13.982-23.3,19.129-7.686,4.539-15.73,8.473-24.286,13.031,5.682,2.707,10.951,5.507,16.447,7.752,5.3,2.164,10.828,3.754,16.678,5.739a29.828,29.828,0,0,1-14.369,11.159c-6.14,2.41-12.358,4.663-18.66,6.6-3.148.967-3.948,2.484-3.064,5.465,1.167,3.931,2.379,7.868,3.2,11.879,2.134,10.477,1.018,11.057-8.442,14.118-1.4.453-2.87.708-3.84.942.621,7.563,1.188,14.841,1.824,22.114.807,9.22-3.62,15.8-11.161,20.06-13.76,7.784-28.738,11.608-44.526,12.729a61.78,61.78,0,0,1-41.9-11.946,148.816,148.816,0,0,1-15.168-12.189c-20.9-19.794-33.744-44.521-42.975-71.38C391.4,313.56,391.141,312.107,390.626,310.061ZM425.4,293.8c5.8-.565,11.89-.4,17.56-1.847,20.3-5.2,34.277-17.489,40.833-37.8,4.951-15.341,4.217-30.017-4.641-43.748-6.681-10.358-15.446-18.825-26.546-24.163a51.415,51.415,0,0,0-18.855-5.273c-25.408-1.4-50.9,16.272-58.786,42.7a43.313,43.313,0,0,0-1.515,9.548c-.862,13.419,3.986,25.116,11.065,36.157,1.294,2.018,2.372,2.292,4.77,1.925C403.568,269.1,421.11,271.524,425.4,293.8ZM586.617,220.8c-.3-14.574-4.82-26.422-14.467-36.055-9.723-9.708-20.83-17.4-34.828-18.921-24.567-2.661-48.861,12.976-57.3,36.279a3.407,3.407,0,0,0,0,2.623c10.115,14.931,12.814,31.074,8.31,48.517a4.294,4.294,0,0,0,.912,3.646q9.063,7.467,18.459,14.525a7.09,7.09,0,0,0,8.1.285c4.978-2.815,10.078-5.463,14.815-8.646,17.077-11.476,33.915-23.312,51.111-34.6C585.285,226.119,587.568,224.161,586.617,220.8ZM445.3,387.851c8.771,5.373,16.946,10.579,25.343,15.4,2.4,1.375,5.4,1.882,8.193,2.347,14.547,2.415,28.169-1.168,41.375-6.863.77-.331,1.552-2.757,1.124-3.376a35.3,35.3,0,0,0-6.218-7.27c-9.738-8.044-20.525-4.936-31.453-2.66,2.608,3.3,7.213,4.789,7.3,10.121C476.745,388.025,462.417,381.968,445.3,387.851Zm55.861-53.5H470.782c1.175,8.438,2.253,16.175,3.387,24.314l29.03-3.483ZM550,325.621l-29.142,5.068c1.569,7.486,3.062,14.617,4.728,22.567l29.188-6.864C553.106,339.158,551.56,332.431,550,325.621Z" transform="translate(-58.5 -74.25)"/>
    <path d="M384.346,295.117a61,61,0,0,1,6.36-2.865A2.627,2.627,0,0,1,393,293.4a2.853,2.853,0,0,1-.6,2.506C390.262,298.224,387.7,298.1,384.346,295.117Z" transform="translate(-58.5 -74.25)"/>
    <path d="M379.472,290.59c-1.861.82-3.663,1.94-5.61,2.323-.858.169-2.011-1.157-3.029-1.8.728-1,1.385-2.785,2.2-2.86,2.057-.188,4.185.39,6.284.661Z" transform="translate(-58.5 -74.25)"/>
    <path d="M392.221,283.8a37.454,37.454,0,0,1,4.731-3,2.554,2.554,0,0,1,2.393.817c.269.7-.168,2.362-.683,2.547a40.878,40.878,0,0,1-5.839,1.281Z" transform="translate(-58.5 -74.25)"/>
    <path d="M281.448,211.707c-.716,3.53-1.163,7.142-2.2,10.574-2.419,7.98-7.127,11.674-15.06,12.4-7.738.712-12.64-3.018-16.212-9.584-5.524-10.155-5.288-20.323-.662-30.558,4.872-10.778,18.677-9.049,25-3.356C277.659,195.992,281.025,203.981,281.448,211.707Z" transform="translate(-58.5 -74.25)"/>
    <path d="M320.347,324.672c-.084,11.018-6.21,18.616-14.1,24.912a11.107,11.107,0,0,1-16.11-3.159c-7.9-13.9-7.715-26.709,5.909-37.059,8.654-6.575,19.906-2.758,22.868,7.664C319.621,319.512,319.882,322.121,320.347,324.672Z" transform="translate(-58.5 -74.25)"/>
    <path d="M287.284,280.906c-1.017,3.139-1.691,6.447-3.138,9.372a9.262,9.262,0,0,1-9.682,4.879c-3.546-.708-8.031-5.934-8.834-10.266-.97-5.226.544-9.9,3.461-14.107,2.313-3.34,5.891-4.174,9.648-3.413,4.673.947,6.457,4.708,7.494,8.859a30.309,30.309,0,0,1,.461,4.45Z" transform="translate(-58.5 -74.25)"/>
    <path d="M156.059,347.116c-1.549-.332-3.087-.746-4.651-.98-5.481-.817-10.957-1.968-16.467-2.18-2.62-.1-5.311,1.632-8.381,2.673,1.214-3.307,3.96-4.891,7.141-5.679C142.224,338.838,151.005,339.149,156.059,347.116Z" transform="translate(-58.5 -74.25)"/>
    <path d="M743.393,297.181c-.066-5.648,5.32-12.485,11.27-14.709,5.476-2.048,10.071-1.278,13.417,2.536C757.4,284.18,750.292,290.274,743.393,297.181Z" transform="translate(-58.5 -74.25)"/>
    <path d="M425.4,293.8c-4.287-22.271-21.829-24.692-36.115-22.506-2.4.367-3.476.093-4.77-1.925-7.079-11.041-11.927-22.738-11.065-36.157a43.313,43.313,0,0,1,1.515-9.548c7.885-26.425,33.378-44.1,58.786-42.7a51.415,51.415,0,0,1,18.855,5.273c11.1,5.338,19.865,13.8,26.546,24.163,8.858,13.731,9.592,28.407,4.641,43.748-6.556,20.313-20.538,32.606-40.833,37.8C437.287,293.4,431.2,293.23,425.4,293.8Zm7.643-80.781c-13.67-1.21-21.956,10.617-22.093,21.944-.147,12.162,10.739,22.876,22.838,22.975,9.733.079,22.636-7.959,22.276-22.669C455.725,221.54,447.223,213.022,433.04,213.014Z" transform="translate(-58.5 -74.25)" style="fill: #fff"/>
    <path d="M586.617,220.8c.951,3.359-1.332,5.317-4.883,7.649-17.2,11.292-34.034,23.128-51.111,34.6-4.737,3.183-9.837,5.831-14.815,8.646a7.09,7.09,0,0,1-8.1-.285q-9.391-7.05-18.459-14.525a4.294,4.294,0,0,1-.912-3.646c4.5-17.443,1.805-33.586-8.31-48.517a3.407,3.407,0,0,1,0-2.623c8.442-23.3,32.736-38.94,57.3-36.279,14,1.516,25.105,9.213,34.828,18.921C581.8,194.38,586.314,206.228,586.617,220.8Zm-39.031,5.761c.422-13.5-9.058-23.006-24.043-23.272-11.064-.2-21.02,10.09-21.029,21.483-.012,13.62,9.948,23.113,23.662,23.7C535.612,248.88,549.052,237.893,547.586,226.563Z" transform="translate(-58.5 -74.25)" style="fill: #fff"/>
    <path d="M445.3,387.851c17.12-5.883,31.448.174,45.662,7.7-.085-5.332-4.69-6.822-7.3-10.121,10.928-2.276,21.715-5.384,31.453,2.66a35.3,35.3,0,0,1,6.218,7.27c.428.619-.354,3.045-1.124,3.376-13.206,5.695-26.828,9.278-41.375,6.863-2.8-.465-5.8-.972-8.193-2.347C462.243,398.43,454.068,393.224,445.3,387.851Z" transform="translate(-58.5 -74.25)" style="fill: #fff"/>
    <path d="M501.158,334.353l2.041,20.831-29.03,3.483c-1.134-8.139-2.212-15.876-3.387-24.314Z" transform="translate(-58.5 -74.25)" style="fill: #fff"/>
    <path d="M550,325.621c1.565,6.81,3.111,13.537,4.774,20.771l-29.188,6.864c-1.666-7.95-3.159-15.081-4.728-22.567Z" transform="translate(-58.5 -74.25)" style="fill: #fff"/>
    <path d="M433.04,213.014c14.183.008,22.685,8.526,23.021,22.25.36,14.71-12.543,22.748-22.276,22.669-12.1-.1-22.985-10.813-22.838-22.975C411.084,223.631,419.37,211.8,433.04,213.014Zm20.054,22.437c1.506-9.112-9.391-19.687-17.63-19.572-13.086.184-20.7,8.058-21.281,19.319-.521,10.157,8.8,19.477,18.734,19.527C444.841,254.784,453.011,246.98,453.094,235.451Z" transform="translate(-58.5 -74.25)"/>
    <path d="M547.586,226.563c1.466,11.33-11.974,22.317-21.41,21.913-13.714-.589-23.674-10.082-23.662-23.7.009-11.393,9.965-21.679,21.029-21.483C538.528,203.557,548.008,213.064,547.586,226.563Zm-2.992.213a19.97,19.97,0,0,0-20.356-20.423c-10.318,0-18.053,7.886-18.082,18.422-.033,12.106,7.926,20.529,19.43,20.563A18.785,18.785,0,0,0,544.594,226.776Z" transform="translate(-58.5 -74.25)"/>
    <path d="M453.094,235.451c-.083,11.529-8.253,19.333-20.177,19.274-9.937-.05-19.255-9.37-18.734-19.527.578-11.261,8.195-19.135,21.281-19.319C443.7,215.764,454.6,226.339,453.094,235.451Zm-19.928,11.571a11.237,11.237,0,0,0,11.672-10.994c.049-6.764-6.11-13.486-12.382-13.514-5.116-.022-10.957,6.241-11,11.795C421.4,241.841,426.11,246.955,433.166,247.022Z" transform="translate(-58.5 -74.25)" style="fill: #fff"/>
    <path d="M544.594,226.776a18.785,18.785,0,0,1-19.008,18.562c-11.5-.034-19.463-8.457-19.43-20.563.029-10.536,7.764-18.417,18.082-18.422A19.97,19.97,0,0,1,544.594,226.776Zm-8.071-2.115c.034-7.21-5.377-12.3-13.067-12.3-5.669,0-10.5,5.47-10.5,11.889,0,6.352,5.333,12.453,11.21,12.184C530.539,236.14,537.295,232.935,536.523,224.661Z" transform="translate(-58.5 -74.25)" style="fill: #fff"/>
    <path d="M433.166,247.022c-7.056-.067-11.767-5.181-11.71-12.713.043-5.554,5.884-11.817,11-11.795,6.272.028,12.431,6.75,12.382,13.514A11.237,11.237,0,0,1,433.166,247.022Z" transform="translate(-58.5 -74.25)"/>
    <path d="M536.523,224.661c.772,8.274-5.984,11.479-12.356,11.771-5.877.269-11.212-5.832-11.21-12.184,0-6.419,4.83-11.887,10.5-11.889C531.146,212.357,536.557,217.451,536.523,224.661Z" transform="translate(-58.5 -74.25)"/>
  </g>
  </g>
</svg>
